<svg width="209" height="124" viewBox="0 0 209 124" fill="none" xmlns="http://www.w3.org/2000/svg">
<path d="M117.723 48.6279L109.543 32.5042C111.155 31.6738 112.514 30.3983 113.471 28.8185C114.428 27.2386 114.946 25.4156 114.967 23.5503C114.967 18.7582 111.72 14.7033 107.143 13.6379C106.979 13.5993 106.812 13.5808 106.645 13.5827H95.1639V48.6279H97.9488V16.4911H106.485C106.727 16.4902 106.967 16.5313 107.196 16.6128C110.148 17.6486 112.261 20.3691 112.261 23.5503C112.261 27.6679 108.725 31.0113 104.408 30.9413V20.0557H101.562V48.6279H104.408V33.7539H104.546C105.431 33.7544 106.312 33.6443 107.171 33.4258L114.864 48.6242L117.723 48.6279Z" fill="white"/>
<path d="M104.479 2.53154C110.053 2.53449 115.501 4.25028 120.135 7.46201C124.769 10.6737 128.38 15.2372 130.511 20.5755C132.643 25.9139 133.2 31.7874 132.111 37.4536C131.023 43.1199 128.338 48.3244 124.396 52.4093C121.797 55.2073 118.685 57.4401 115.244 58.9771C111.803 60.5142 108.1 61.3247 104.353 61.3612C100.606 61.3977 96.8891 60.6595 93.4204 59.1898C89.9517 57.72 86.8006 55.5482 84.1513 52.8014C81.502 50.0546 79.4077 46.7879 77.9908 43.1923C76.574 39.5967 75.8631 35.7444 75.8996 31.8607C75.9362 27.977 76.7195 24.1398 78.2038 20.5736C79.688 17.0073 81.8434 13.7836 84.5439 11.0909C87.1534 8.37096 90.2572 6.21409 93.6758 4.74494C97.0944 3.27579 100.76 2.52349 104.461 2.53154H104.479ZM104.461 0.843262C98.5631 0.846178 92.7986 2.66151 87.8961 6.05974C82.9937 9.45796 79.1736 14.2865 76.9187 19.9348C74.6638 25.5831 74.0755 31.7975 75.228 37.7923C76.3806 43.7871 79.2224 49.2932 83.394 53.6142C87.5656 57.9352 92.8798 60.8772 98.6645 62.0683C104.449 63.2593 110.445 62.6458 115.893 60.3054C121.342 57.965 125.998 54.0027 129.274 48.9197C132.55 43.8366 134.298 37.861 134.297 31.7483C134.296 23.552 131.154 15.6918 125.563 9.89621C119.971 4.10061 112.387 0.844239 104.479 0.843262L104.461 0.843262Z" fill="white"/>
<path d="M104.479 4.22047C109.732 4.22072 114.867 5.83551 119.235 8.86065C123.603 11.8858 127.007 16.1854 129.017 21.2157C131.027 26.2461 131.553 31.7812 130.527 37.1212C129.502 42.4612 126.972 47.3662 123.257 51.2159C118.253 56.2685 111.53 59.0742 104.544 59.0253C97.5582 58.9764 90.8721 56.0768 85.9343 50.9547C80.9965 45.8325 78.2046 38.9003 78.1633 31.6598C78.1221 24.4192 80.8349 17.4533 85.714 12.2711C88.1734 9.7108 91.0981 7.68104 94.3189 6.2992C97.5397 4.91736 100.993 4.21083 104.479 4.22047ZM104.479 3.48323C99.0816 3.4825 93.8056 5.1406 89.3179 8.24783C84.8301 11.3551 81.3322 15.7719 79.2666 20.9396C77.2009 26.1074 76.6602 31.794 77.713 37.2802C78.7657 42.7664 81.3645 47.8059 85.1808 51.7612C88.9971 55.7166 93.8593 58.4101 99.1527 59.5012C104.446 60.5923 109.933 60.0319 114.919 57.891C119.905 55.75 124.166 52.1247 127.164 47.4734C130.162 42.8221 131.762 37.3538 131.761 31.7601C131.763 28.0458 131.058 24.3676 129.688 20.9356C128.317 17.5036 126.308 14.3851 123.774 11.7582C121.241 9.13127 118.233 7.04742 114.922 5.62568C111.611 4.20394 108.062 3.47217 104.479 3.47217V3.48323Z" fill="white"/>
<path d="M41.3881 83.7461H37.9916V104.858H41.3881V83.7461Z" fill="white"/>
<path d="M51.368 103.1H40.9436V104.857H51.368V103.1Z" fill="white"/>
<path d="M80.3969 83.7461H77.0004V104.858H80.3969V83.7461Z" fill="white"/>
<path d="M199.02 83.7461H195.624V104.858H199.02V83.7461Z" fill="white"/>
<path d="M209 103.1H198.576V104.857H209V103.1Z" fill="white"/>
<path d="M31.4261 104.858H34.3603L25.4297 83.7461H23.5945L14.6674 104.858H15.8198L18.409 98.7349H28.8369L31.4261 104.858ZM18.8855 97.6105L23.6229 86.4113L28.3603 97.6105H18.8855Z" fill="white"/>
<path d="M70.3673 104.858H73.3015L64.3744 83.7461H62.5392L53.6122 104.858H54.7716L57.3608 98.7349H67.7888L70.3673 104.858ZM57.8267 97.6105L62.5641 86.4113L67.3015 97.6105H57.8267Z" fill="white"/>
<path d="M188.884 104.887H191.818L182.887 83.7837H181.056L172.139 104.887H173.295L175.885 98.7644H186.295L188.884 104.887ZM176.347 97.6364L181.081 86.4378L185.818 97.6364H176.347Z" fill="white"/>
<path d="M7.33371 83.7461C5.70834 83.7461 4.24658 83.7461 2.91997 83.8014V83.7461H0V104.858H2.91997V97.0318C4.24302 97.0723 5.70834 97.0944 7.33371 97.0944C11.3811 97.0944 14.6674 94.1048 14.6674 90.4184C14.6674 86.7321 11.3811 83.7461 7.33371 83.7461ZM7.31593 95.3102C5.66922 95.3102 4.21101 95.2881 2.91997 95.2402V85.1727C4.22524 85.1432 5.68345 85.1285 7.31593 85.1285C9.74508 85.1285 11.7119 86.8648 11.7119 90.2194C11.7119 93.7361 9.74508 95.3102 7.31593 95.3102Z" fill="white"/>
<path d="M129.691 104.858L123.706 96.586C126.366 95.5833 128.233 93.2018 128.233 90.4186C128.233 86.7321 124.95 83.7461 120.903 83.7461C119.278 83.7461 117.812 83.7461 116.489 83.8014V83.7461H113.569V104.858H116.489V97.032C117.812 97.0726 119.274 97.0947 120.903 97.0947H121.152L126.775 104.866L129.691 104.858ZM116.486 85.1728C117.791 85.1433 119.249 85.1285 120.882 85.1285C123.311 85.1285 125.278 86.8648 125.278 90.2195C125.278 93.7179 123.311 95.3105 120.882 95.3105C119.235 95.3105 117.777 95.2883 116.486 95.2404V85.1728Z" fill="white"/>
<path d="M143.214 83.7461C141.199 83.7461 139.23 84.3653 137.554 85.5254C135.879 86.6855 134.574 88.3343 133.803 90.2635C133.032 92.1926 132.83 94.3154 133.223 96.3634C133.616 98.4114 134.586 100.293 136.011 101.769C137.435 103.246 139.25 104.251 141.226 104.658C143.202 105.066 145.25 104.857 147.112 104.058C148.973 103.259 150.564 101.905 151.683 100.169C152.802 98.433 153.4 96.3918 153.4 94.3037C153.4 92.9171 153.137 91.544 152.625 90.2629C152.114 88.9818 151.363 87.8177 150.417 86.8373C149.471 85.8568 148.348 85.0792 147.112 84.5488C145.876 84.0184 144.551 83.7456 143.214 83.7461ZM143.214 103.803C139.241 103.803 136.019 99.5493 136.019 94.3037C136.019 89.0581 139.241 84.8004 143.214 84.8004C147.186 84.8004 150.412 89.0544 150.412 94.3037C150.412 99.553 147.19 103.803 143.214 103.803Z" fill="white"/>
<path d="M98.813 85.6999C98.813 85.6999 95.548 83.7461 92.5605 83.7461C89.5729 83.7461 85.273 84.3802 85.273 89.4452C85.273 94.5103 90.7964 94.9748 93.1473 95.6862C95.4982 96.3977 97.4508 97.0539 97.4508 100.003C97.4508 102.952 94.3815 103.689 92.4716 103.627C88.602 103.523 85.2623 100.567 85.2623 100.567L84.4479 101.599C86.6456 103.67 89.5017 104.83 92.4716 104.858C97.3583 104.858 99.8479 102.163 99.8479 99.815C99.8479 97.5589 98.9268 93.5703 91.5789 92.7666C90.8727 92.6583 90.1972 92.3939 89.5983 91.9913C88.9994 91.5887 88.491 91.0573 88.1076 90.4332C86.8557 88.0555 87.7875 84.9036 92.4716 85.1285C92.4716 85.1285 94.9149 85.1764 97.8065 86.9717C98.1799 86.5815 98.5169 86.1557 98.813 85.6999Z" fill="white"/>
<path d="M171.311 83.7461L164.852 94.16L158.158 83.7461H155L162.352 95.1811V104.887H165.51V95.1811L172.602 83.7461H171.311Z" fill="white"/>
<path d="M53.9821 123.809V116.318H56.5713C57.0974 116.299 57.6214 116.397 58.1077 116.606C58.4728 116.771 58.7806 117.047 58.9897 117.398C59.1785 117.734 59.2767 118.116 59.2743 118.504C59.2779 118.963 59.1354 119.41 58.8688 119.776C58.5485 120.187 58.1013 120.471 57.6027 120.58L59.3561 123.801H58.2215L56.5926 120.709H54.9423V123.801L53.9821 123.809ZM54.9423 120.008H56.5037C56.9888 120.052 57.4718 119.903 57.8552 119.592C57.9943 119.454 58.1039 119.288 58.1768 119.104C58.2498 118.92 58.2844 118.722 58.2784 118.523C58.2877 118.326 58.2549 118.129 58.1824 117.947C58.1098 117.765 57.9993 117.601 57.8587 117.468C57.4636 117.17 56.9766 117.031 56.4895 117.078H54.9423V120.008Z" fill="white"/>
<path d="M64.4669 123.809V116.318H69.4461V117.056H65.4414V119.666H69.0976V120.403H65.4414V123.076H69.439V123.813L64.4669 123.809Z" fill="white"/>
<path d="M77.1782 123.934C76.6516 123.947 76.1282 123.845 75.6417 123.635C75.2359 123.462 74.8856 123.173 74.6317 122.802C74.3931 122.436 74.2689 122.002 74.276 121.56H75.2861C75.2837 121.845 75.3589 122.125 75.503 122.367C75.6571 122.622 75.8779 122.827 76.1397 122.957C76.4644 123.114 76.8203 123.188 77.1782 123.175C77.6257 123.2 78.0687 123.07 78.4372 122.806C78.5771 122.703 78.6909 122.566 78.7689 122.408C78.8469 122.249 78.8869 122.073 78.8854 121.895C78.8998 121.632 78.827 121.372 78.6791 121.158C78.5289 120.966 78.3377 120.814 78.1207 120.712C77.8625 120.589 77.5948 120.49 77.3205 120.413C77.0182 120.329 76.7016 120.233 76.3744 120.126C75.8681 119.99 75.3977 119.738 74.998 119.389C74.8498 119.238 74.7337 119.057 74.6571 118.857C74.5805 118.657 74.5452 118.442 74.5534 118.227C74.5377 117.848 74.6413 117.474 74.8486 117.162C75.069 116.836 75.3734 116.58 75.7271 116.425C76.5889 116.073 77.547 116.073 78.4088 116.425C78.7622 116.582 79.0672 116.837 79.2908 117.162C79.5013 117.476 79.6153 117.849 79.618 118.231H78.6008C78.598 118.014 78.5391 117.801 78.4301 117.615C78.3049 117.401 78.1236 117.229 77.9073 117.118C77.6354 116.98 77.3348 116.914 77.0324 116.926C76.6533 116.903 76.2776 117.012 75.9654 117.236C75.8295 117.336 75.7199 117.469 75.6466 117.625C75.5733 117.78 75.5386 117.951 75.5457 118.124C75.537 118.262 75.5587 118.4 75.6092 118.528C75.6598 118.655 75.7378 118.77 75.8374 118.861C76.0805 119.059 76.3601 119.204 76.6589 119.285L77.8717 119.654C78.2283 119.77 78.5736 119.921 78.9032 120.104C79.1911 120.258 79.436 120.487 79.6145 120.767C79.7914 121.079 79.8814 121.436 79.8745 121.798C79.8676 122.16 79.764 122.512 79.5754 122.817C79.3508 123.157 79.0392 123.425 78.6755 123.591C78.2072 123.819 77.6957 123.936 77.1782 123.934Z" fill="white"/>
<path d="M86.621 123.809V117.056H84.2238V116.318H89.9819V117.056H87.5848V123.809H86.621Z" fill="white"/>
<path d="M93.439 123.809L96.3838 116.318H97.4046L100.349 123.809H99.3287L98.596 121.881H95.1817L94.4384 123.809H93.439ZM95.4804 121.155H98.3257L96.9031 117.45L95.4804 121.155Z" fill="white"/>
<path d="M107.801 123.934C107.287 123.943 106.777 123.84 106.303 123.632C105.864 123.434 105.492 123.104 105.236 122.685C104.951 122.191 104.811 121.622 104.834 121.048V116.318H105.798V121.059C105.772 121.349 105.809 121.641 105.906 121.915C106.002 122.188 106.156 122.436 106.357 122.64C106.773 122.983 107.294 123.159 107.825 123.134C108.353 123.162 108.871 122.986 109.28 122.64C109.478 122.435 109.63 122.186 109.725 121.913C109.82 121.64 109.857 121.348 109.831 121.059V116.318H110.795V121.048C110.818 121.622 110.678 122.191 110.393 122.685C110.137 123.104 109.766 123.434 109.326 123.632C108.843 123.842 108.324 123.944 107.801 123.934Z" fill="white"/>
<path d="M116.635 123.809V116.318H119.224C119.75 116.299 120.274 116.397 120.761 116.606C121.126 116.771 121.434 117.047 121.643 117.398C121.832 117.734 121.93 118.116 121.927 118.504C121.931 118.963 121.788 119.41 121.522 119.776C121.202 120.187 120.754 120.471 120.256 120.58L122.009 123.801H120.875L119.246 120.709H117.595V123.801L116.635 123.809ZM117.595 120.008H119.146C119.632 120.051 120.116 119.903 120.501 119.592C120.64 119.454 120.75 119.288 120.823 119.104C120.896 118.92 120.93 118.722 120.924 118.523C120.934 118.326 120.901 118.129 120.828 117.947C120.756 117.765 120.645 117.601 120.505 117.468C120.11 117.17 119.623 117.031 119.135 117.078H117.588L117.595 120.008Z" fill="white"/>
<path d="M126.672 123.809L129.631 116.318H130.648L133.597 123.809H132.576L131.843 121.881H128.425L127.682 123.809H126.672ZM128.713 121.155H131.559L130.136 117.45L128.713 121.155Z" fill="white"/>
<path d="M138.412 123.809V116.318H139.372L143.64 122.319V116.318H144.604V123.809H143.64L139.372 117.804V123.809H138.412Z" fill="white"/>
<path d="M151.358 123.809V117.056H148.965V116.318H154.712V117.056H152.315V123.809H151.358Z" fill="white"/>
</svg>
