<svg width="224" height="46" viewBox="0 0 224 46" fill="none" xmlns="http://www.w3.org/2000/svg">
<path d="M33.0795 35.0164L26.7389 23.3801C27.9915 22.7818 29.0482 21.8619 29.7923 20.7222C30.5363 19.5824 30.9389 18.2669 30.9556 16.9209C30.9556 13.4566 28.4311 10.5513 24.8851 9.76813C24.7587 9.74159 24.6295 9.72856 24.5001 9.72928H15.5668V35.0164H17.7403V11.8276H24.3604C24.5462 11.8276 24.7308 11.8569 24.9069 11.9142C27.2015 12.6645 28.841 14.6253 28.841 16.9209C28.841 19.8919 26.0961 22.3011 22.7426 22.2533V14.4011H20.5287V35.0253H22.7426V24.2828H22.8482C23.5354 24.2837 24.2203 24.2054 24.8882 24.0497L30.8655 35.0164H33.0795Z" fill="url(#paint0_linear)"/>
<path d="M22.6986 8.15814e-07C18.2086 0.000602646 13.8197 1.33262 10.0868 3.82761C6.35383 6.32259 3.44458 9.86849 1.7269 14.0169C0.009228 18.1653 -0.439728 22.7299 0.436809 27.1335C1.31335 31.537 3.47601 35.5818 6.65131 38.7562C9.82662 41.9307 13.872 44.0923 18.2758 44.9676C22.6796 45.843 27.244 45.3928 31.392 43.674C35.5399 41.9552 39.0851 39.045 41.579 35.3114C44.073 31.5778 45.4039 27.1885 45.4033 22.6986C45.4033 19.7172 44.8159 16.7651 43.6748 14.0108C42.5338 11.2565 40.8613 8.75395 38.7528 6.64611C36.6444 4.53827 34.1415 2.86643 31.3868 1.72608C28.6322 0.585728 25.6799 -0.000798469 22.6986 8.15814e-07ZM37.8726 37.8726C35.8868 39.8963 33.5197 41.5066 30.908 42.6102C28.2963 43.7138 25.4917 44.289 22.6565 44.3024C19.8212 44.3158 17.0113 43.7673 14.3893 42.6885C11.7672 41.6097 9.38494 40.022 7.38007 38.0171C5.37521 36.0122 3.7875 33.6299 2.70868 31.0079C1.62986 28.3858 1.08133 25.576 1.09477 22.7407C1.10821 19.9054 1.68336 17.1009 2.78699 14.4892C3.89061 11.8775 5.50083 9.51038 7.52462 7.52461C9.51039 5.50082 11.8775 3.8906 14.4892 2.78697C17.1009 1.68335 19.9054 1.1082 22.7407 1.09476C25.576 1.08132 28.3859 1.62986 31.0079 2.70867C33.63 3.78749 36.0122 5.3752 38.0171 7.38007C40.022 9.38494 41.6097 11.7672 42.6885 14.3893C43.7673 17.0113 44.3159 19.8212 44.3024 22.6564C44.289 25.4917 43.7138 28.2962 42.6102 30.9079C41.5066 33.5197 39.8964 35.8868 37.8726 37.8726Z" fill="url(#paint1_linear)"/>
<path d="M22.7046 1.9458C18.5993 1.9452 14.5859 3.16207 11.1722 5.44251C7.75846 7.72295 5.09766 10.9645 3.52633 14.7573C1.955 18.55 1.54371 22.7236 2.34448 26.7501C3.14525 30.7766 5.12211 34.4752 8.02504 37.3781C10.928 40.2811 14.6266 42.2579 18.6531 43.0587C22.6796 43.8594 26.8531 43.4482 30.6459 41.8768C34.4386 40.3055 37.6802 37.6447 39.9606 34.231C42.2411 30.8172 43.458 26.8039 43.4574 22.6985C43.4574 17.1946 41.2709 11.916 37.379 8.02414C33.4871 4.13224 28.2086 1.9458 22.7046 1.9458ZM36.9938 36.9847C33.2041 40.7744 28.0641 42.9034 22.7046 42.9034C17.3451 42.9034 12.2052 40.7744 8.41546 36.9847C4.62574 33.1949 2.49669 28.055 2.49669 22.6955C2.49669 17.336 4.62574 12.196 8.41546 8.40633C12.2052 4.61661 17.3451 2.48756 22.7046 2.48756C28.0641 2.48756 33.2041 4.61661 36.9938 8.40633C40.7835 12.196 42.9125 17.336 42.9125 22.6955C42.9125 28.055 40.7835 33.1949 36.9938 36.9847Z" fill="url(#paint2_linear)"/>
<path d="M95.8543 7.14453H93.2599V23.6535H95.8543V7.14453Z" fill="white"/>
<path d="M103.485 22.28H95.5151V23.6569H103.485V22.28Z" fill="white"/>
<path d="M125.677 7.14453H123.082V23.6535H125.677V7.14453Z" fill="white"/>
<path d="M216.366 7.14453H213.772V23.6535H216.366V7.14453Z" fill="white"/>
<path d="M224 22.28H216.03V23.6569H224V22.28Z" fill="white"/>
<path d="M88.2391 23.6567H90.4944L83.6675 7.13477H82.2435L75.4166 23.6567H76.2998L78.28 18.8686H86.2589L88.2391 23.6567ZM78.6528 17.9874L82.274 9.2405L85.8953 17.9874H78.6528Z" fill="white"/>
<path d="M117.997 23.6567H120.24L113.413 7.13477H112.011L105.184 23.6567H106.079L108.06 18.8686H116.029L117.997 23.6567ZM108.411 17.9874L112.032 9.2405L115.653 17.9874H108.411Z" fill="white"/>
<path d="M208.62 23.6762H210.863L204.036 7.1543H202.645L195.819 23.6762H196.702L198.673 18.8881H206.643L208.62 23.6762ZM199.033 18.0069L202.655 9.26003L206.276 18.0069H199.033Z" fill="white"/>
<path d="M69.8213 7.14453C68.5776 7.14453 67.4591 7.14453 66.4598 7.18989V7.14453H64.2137V23.6664H66.4445V17.5436C67.4591 17.576 68.5837 17.5922 69.8213 17.5922C72.9169 17.5922 75.4258 15.2565 75.4258 12.3732C75.4258 9.49 72.9169 7.14453 69.8213 7.14453ZM69.806 16.1798C68.547 16.1798 67.4347 16.1603 66.4445 16.1247V8.25247C67.4438 8.22979 68.5592 8.21684 69.806 8.21684C71.664 8.21684 73.1675 9.57423 73.1675 12.1983C73.1675 14.9422 71.664 16.1798 69.806 16.1798Z" fill="white"/>
<path d="M163.365 23.6567L158.781 17.1775C160.813 16.3935 162.244 14.5308 162.244 12.3537C162.244 9.47375 159.735 7.13477 156.636 7.13477C155.395 7.13477 154.277 7.13477 153.274 7.18012V7.13477H151.044V23.6567H153.274V17.5339C154.286 17.5662 155.414 17.5825 156.636 17.5825H156.828L161.128 23.6599L163.365 23.6567ZM153.281 8.26214C154.28 8.23947 155.395 8.22651 156.642 8.22651C158.5 8.22651 160.004 9.5839 160.004 12.208C160.004 14.9422 158.5 16.1894 156.642 16.1894C155.383 16.1894 154.268 16.17 153.281 16.1344V8.26214Z" fill="white"/>
<path d="M173.706 7.14453C172.165 7.14389 170.659 7.62773 169.377 8.53486C168.096 9.44198 167.097 10.7316 166.507 12.2407C165.917 13.7497 165.763 15.4103 166.063 17.0125C166.364 18.6146 167.106 20.0863 168.195 21.2413C169.285 22.3964 170.673 23.1829 172.184 23.5015C173.696 23.82 175.262 23.6562 176.685 23.0308C178.109 22.4054 179.325 21.3464 180.181 19.988C181.037 18.6295 181.493 17.0325 181.493 15.399C181.493 13.2098 180.672 11.1102 179.212 9.56221C177.752 8.0142 175.771 7.14453 173.706 7.14453ZM173.706 22.8306C170.666 22.8306 168.206 19.5036 168.206 15.399C168.206 11.2944 170.669 7.97063 173.706 7.97063C176.744 7.97063 179.207 11.2977 179.207 15.399C179.207 19.5003 176.744 22.8306 173.706 22.8306Z" fill="white"/>
<path d="M139.758 8.67362C139.758 8.67362 137.262 7.14453 134.979 7.14453C132.696 7.14453 129.408 7.64019 129.408 11.6022C129.408 15.5642 133.628 15.9335 135.428 16.4843C137.228 17.035 138.716 17.5469 138.716 19.8567C138.716 22.1665 136.369 22.7334 134.918 22.6913C131.96 22.6103 129.417 20.2973 129.417 20.2973L128.806 21.1039C130.48 22.7194 132.654 23.6277 134.918 23.6567C138.655 23.6567 140.559 21.5445 140.559 19.7109C140.559 17.9486 139.856 14.8288 134.236 14.2036C133.697 14.1185 133.181 13.9117 132.723 13.597C132.266 13.2824 131.877 12.8673 131.584 12.3797C130.624 10.5202 131.339 8.05162 134.918 8.23303C136.368 8.35993 137.768 8.85075 139.004 9.66493C139.283 9.35961 139.536 9.02779 139.758 8.67362Z" fill="white"/>
<path d="M195.183 7.14453L190.248 15.2889L185.129 7.14453H182.715L188.335 16.089V23.6762H190.749V16.089L196.17 7.14453H195.183Z" fill="white"/>
<path d="M64.2137 38.4716V32.6144H66.194C66.596 32.5981 66.9966 32.6755 67.3674 32.8412C67.6471 32.9692 67.8828 33.1852 68.0428 33.46C68.1896 33.7238 68.2657 34.0251 68.2628 34.3314C68.2675 34.6896 68.16 35.0394 67.9572 35.326C67.7114 35.6465 67.3696 35.8682 66.9885 35.9545L68.33 38.4716H67.4621L66.2184 36.0549H64.9563V38.4716H64.2137ZM64.9502 35.5009H66.142C66.5126 35.536 66.882 35.4202 67.1749 35.177C67.2816 35.0692 67.3657 34.9388 67.4215 34.7942C67.4773 34.6495 67.5037 34.4941 67.4988 34.3379C67.5053 34.1842 67.4799 34.0309 67.4245 33.8887C67.369 33.7466 67.2849 33.619 67.1779 33.515C66.8764 33.2816 66.5046 33.1732 66.1328 33.2105H64.9502V35.5009Z" fill="url(#paint3_linear)"/>
<path d="M72.2294 38.4712V32.614H76.0248V33.1907H72.9689V35.2348H75.765V35.8018H72.9689V37.8848H76.0248V38.4615L72.2294 38.4712Z" fill="url(#paint4_linear)"/>
<path d="M81.9471 38.5719C81.5449 38.5816 81.1452 38.5021 80.7736 38.3387C80.4639 38.2049 80.1967 37.9801 80.0036 37.6908C79.8185 37.4053 79.7233 37.0651 79.7316 36.7189H80.5017C80.4997 36.9417 80.5569 37.1606 80.6667 37.3506C80.786 37.5493 80.9554 37.7086 81.1556 37.8106C81.4031 37.9327 81.6742 37.9915 81.9471 37.9823C82.2892 38.0059 82.6287 37.9054 82.9097 37.6972C83.0162 37.6167 83.1029 37.5103 83.1625 37.3868C83.2221 37.2633 83.2527 37.1265 83.252 36.9878C83.2616 36.7856 83.2067 36.5859 83.0961 36.4208C82.9813 36.2725 82.836 36.154 82.6713 36.0742C82.4747 35.9771 82.2701 35.899 82.0602 35.841C81.8279 35.7729 81.5896 35.6984 81.3359 35.6142C80.9485 35.5064 80.5891 35.3071 80.2847 35.0311C80.1708 34.9138 80.0814 34.7724 80.0224 34.6161C79.9635 34.4599 79.9362 34.2922 79.9424 34.124C79.9335 33.8277 80.0138 33.5361 80.1716 33.2914C80.3414 33.0401 80.5728 32.8429 80.8409 32.7212C81.1669 32.5777 81.5177 32.5082 81.8707 32.5171C82.2212 32.5089 82.5693 32.5807 82.8914 32.7277C83.1621 32.8506 83.3958 33.0501 83.5667 33.3043C83.728 33.5497 83.8153 33.8411 83.8173 34.1402H83.0442C83.0426 33.9706 82.9971 33.8048 82.9128 33.6607C82.8178 33.4938 82.68 33.3589 82.5155 33.272C82.3076 33.1637 82.0777 33.1114 81.8463 33.1197C81.5552 33.0999 81.2664 33.1856 81.0273 33.3627C80.924 33.4412 80.8406 33.5456 80.7846 33.6665C80.7286 33.7875 80.7018 33.9213 80.7064 34.0559C80.6999 34.1642 80.7166 34.2726 80.7553 34.373C80.7939 34.4734 80.8535 34.5633 80.9295 34.6358C81.1117 34.7845 81.3192 34.8945 81.5407 34.9598L82.4574 35.2546C82.7298 35.3466 82.9937 35.4648 83.2458 35.6077C83.466 35.7296 83.654 35.9078 83.7929 36.126C83.9329 36.3706 84.002 36.6533 83.9915 36.9392C83.9904 37.2209 83.9107 37.4959 83.7623 37.7296C83.5898 37.9946 83.352 38.2041 83.0747 38.3354C82.7196 38.5004 82.3347 38.5811 81.9471 38.5719Z" fill="url(#paint5_linear)"/>
<path d="M89.1681 38.4712V33.1907H87.3346V32.614H91.7351V33.1907H89.9015V38.4712H89.1681Z" fill="url(#paint6_linear)"/>
<path d="M94.3815 38.4712L96.6398 32.614H97.419L99.6712 38.4712H98.892L98.3327 36.9648H95.7199L95.1515 38.4712H94.3815ZM95.94 36.3979H98.1188L97.0309 33.5017L95.94 36.3979Z" fill="url(#paint7_linear)"/>
<path d="M105.358 38.5716C104.966 38.5778 104.577 38.4973 104.215 38.3351C103.878 38.1803 103.593 37.9219 103.396 37.5933C103.176 37.2027 103.07 36.7519 103.091 36.2974V32.614H103.824V36.3201C103.804 36.5479 103.833 36.7775 103.907 36.9922C103.982 37.2068 104.101 37.4011 104.255 37.5609C104.573 37.8284 104.971 37.9654 105.377 37.9464C105.779 37.9665 106.175 37.8294 106.489 37.5609C106.641 37.3994 106.757 37.2046 106.83 36.9902C106.903 36.7758 106.93 36.547 106.911 36.3201V32.614H107.644V36.3136C107.665 36.7681 107.559 37.2189 107.338 37.6095C107.14 37.9379 106.854 38.1962 106.516 38.3513C106.149 38.5085 105.754 38.5835 105.358 38.5716Z" fill="url(#paint8_linear)"/>
<path d="M112.112 38.4715V32.6144H114.092C114.495 32.5984 114.896 32.6758 115.268 32.8411C115.548 32.9682 115.783 33.1845 115.941 33.4599C116.082 33.7221 116.153 34.0198 116.149 34.3216C116.153 34.6798 116.046 35.0296 115.843 35.3162C115.598 35.6375 115.256 35.8594 114.874 35.9447L116.216 38.4618H115.354L114.11 36.0451H112.848V38.4618L112.112 38.4715ZM112.848 35.5008H114.04C114.412 35.5358 114.782 35.42 115.076 35.1769C115.182 35.0686 115.266 34.9381 115.321 34.7936C115.377 34.6491 115.404 34.4939 115.4 34.3378C115.406 34.1841 115.381 34.0308 115.325 33.8887C115.27 33.7465 115.186 33.6189 115.079 33.515C114.776 33.2823 114.403 33.1741 114.031 33.2104H112.848V35.5008Z" fill="url(#paint9_linear)"/>
<path d="M119.788 38.4712L122.049 32.614H122.829L125.081 38.4712H124.302L123.739 36.9648H121.13L120.558 38.4712H119.788ZM121.347 36.3979H123.519L122.434 33.5017L121.347 36.3979Z" fill="url(#paint10_linear)"/>
<path d="M128.763 38.4712V32.614H129.497L132.767 37.3082V32.614H133.503V38.4712H132.767L129.497 33.777V38.4712H128.763Z" fill="url(#paint11_linear)"/>
<path d="M138.661 38.4712V33.1907H136.828V32.614H141.225V33.1907H139.392V38.4712H138.661Z" fill="url(#paint12_linear)"/>
<defs>
<linearGradient id="paint0_linear" x1="31.058" y1="36.2598" x2="14.7609" y2="10.605" gradientUnits="userSpaceOnUse">
<stop stop-color="#77653B"/>
<stop offset="0.49" stop-color="#FFD682"/>
<stop offset="1" stop-color="#B18A65"/>
</linearGradient>
<linearGradient id="paint1_linear" x1="39.3909" y1="39.7073" x2="6.62094" y2="6.31666" gradientUnits="userSpaceOnUse">
<stop stop-color="#6F4727"/>
<stop offset="0.49" stop-color="#DFC19E"/>
<stop offset="1" stop-color="#937645"/>
</linearGradient>
<linearGradient id="paint2_linear" x1="39.3834" y1="39.6935" x2="6.63995" y2="6.32984" gradientUnits="userSpaceOnUse">
<stop stop-color="#6F4727"/>
<stop offset="0.49" stop-color="#DFC19E"/>
<stop offset="1" stop-color="#937645"/>
</linearGradient>
<linearGradient id="paint3_linear" x1="609.62" y1="1718.63" x2="1654.34" y2="1721.58" gradientUnits="userSpaceOnUse">
<stop stop-color="#77653B"/>
<stop offset="0.49" stop-color="#FFD682"/>
<stop offset="1" stop-color="#B18A65"/>
</linearGradient>
<linearGradient id="paint4_linear" x1="575.121" y1="1717.31" x2="1538.4" y2="1719.82" gradientUnits="userSpaceOnUse">
<stop stop-color="#77653B"/>
<stop offset="0.49" stop-color="#FFD682"/>
<stop offset="1" stop-color="#B18A65"/>
</linearGradient>
<linearGradient id="paint5_linear" x1="644.372" y1="1773.9" x2="1725.94" y2="1776.96" gradientUnits="userSpaceOnUse">
<stop stop-color="#77653B"/>
<stop offset="0.49" stop-color="#FFD682"/>
<stop offset="1" stop-color="#B18A65"/>
</linearGradient>
<linearGradient id="paint6_linear" x1="670.398" y1="1716.08" x2="1787.25" y2="1719.46" gradientUnits="userSpaceOnUse">
<stop stop-color="#77653B"/>
<stop offset="0.49" stop-color="#FFD682"/>
<stop offset="1" stop-color="#B18A65"/>
</linearGradient>
<linearGradient id="paint7_linear" x1="795.324" y1="1715.67" x2="2137.81" y2="1720.55" gradientUnits="userSpaceOnUse">
<stop stop-color="#77653B"/>
<stop offset="0.49" stop-color="#FFD682"/>
<stop offset="1" stop-color="#B18A65"/>
</linearGradient>
<linearGradient id="paint8_linear" x1="707.129" y1="1744.94" x2="1864.03" y2="1748.5" gradientUnits="userSpaceOnUse">
<stop stop-color="#77653B"/>
<stop offset="0.49" stop-color="#FFD682"/>
<stop offset="1" stop-color="#B18A65"/>
</linearGradient>
<linearGradient id="paint9_linear" x1="655.941" y1="1714.91" x2="1697.52" y2="1717.85" gradientUnits="userSpaceOnUse">
<stop stop-color="#77653B"/>
<stop offset="0.49" stop-color="#FFD682"/>
<stop offset="1" stop-color="#B18A65"/>
</linearGradient>
<linearGradient id="paint10_linear" x1="821.135" y1="1713.68" x2="2164.39" y2="1718.56" gradientUnits="userSpaceOnUse">
<stop stop-color="#77653B"/>
<stop offset="0.49" stop-color="#FFD682"/>
<stop offset="1" stop-color="#B18A65"/>
</linearGradient>
<linearGradient id="paint11_linear" x1="756.817" y1="1712.92" x2="1959.71" y2="1716.83" gradientUnits="userSpaceOnUse">
<stop stop-color="#77653B"/>
<stop offset="0.49" stop-color="#FFD682"/>
<stop offset="1" stop-color="#B18A65"/>
</linearGradient>
<linearGradient id="paint12_linear" x1="719.529" y1="1712.28" x2="1835.56" y2="1715.64" gradientUnits="userSpaceOnUse">
<stop stop-color="#77653B"/>
<stop offset="0.49" stop-color="#FFD682"/>
<stop offset="1" stop-color="#B18A65"/>
</linearGradient>
</defs>
</svg>
