<svg width="134" height="117" viewBox="0 0 134 117" fill="none" xmlns="http://www.w3.org/2000/svg">
<path d="M32.9579 117C22.8393 117 14.7443 113.389 8.67314 106.167C2.89105 98.6556 0 88.9778 0 77.1333C0 60.9556 4.33657 46.3667 13.0097 33.3667C21.972 20.0778 35.5599 8.95554 53.7735 0L58.5437 6.93332C49.8706 12.1333 41.9202 19.5 34.6926 29.0333C27.754 38.2778 24.2848 47.6667 24.2848 57.2C24.2848 59.8 25.0076 61.9667 26.4531 63.7C27.8986 65.1444 30.0669 65.8667 32.9579 65.8667C40.1855 65.8667 46.2567 68.4667 51.1715 73.6667C56.3754 78.5778 58.9774 84.6445 58.9774 91.8667C58.9774 99.0889 56.3754 105.156 51.1715 110.067C46.2567 114.689 40.1855 117 32.9579 117ZM107.981 117C97.8619 117 89.767 113.389 83.6958 106.167C77.9137 98.6556 75.0227 88.9778 75.0227 77.1333C75.0227 60.9556 79.3592 46.3667 88.0324 33.3667C96.9946 20.0778 110.583 8.95554 128.796 0L133.566 6.93332C124.893 12.1333 116.943 19.5 109.715 29.0333C102.777 38.2778 99.3075 47.6667 99.3075 57.2C99.3075 59.8 100.03 61.9667 101.476 63.7C102.921 65.1444 105.09 65.8667 107.981 65.8667C115.208 65.8667 121.279 68.4667 126.194 73.6667C131.398 78.5778 134 84.6445 134 91.8667C134 99.0889 131.398 105.156 126.194 110.067C121.279 114.689 115.208 117 107.981 117Z" fill="#C79F6D" fill-opacity="0.12"/>
</svg>
