<svg width="70" height="76" viewBox="0 0 70 76" fill="none" xmlns="http://www.w3.org/2000/svg">
<path d="M47.301 16.4643V12.7805C47.301 9.07163 46.1177 6.01434 43.7513 3.60861C41.3848 1.20287 38.389 0 34.7638 0C30.8365 0 27.7651 1.22793 25.5497 3.68378C23.3343 6.13964 22.2266 9.42247 22.2266 13.5323V14.66C22.2266 14.8604 22.2518 15.0359 22.3021 15.1862L22.3776 16.4643C18.6517 13.8079 15.3034 12.4798 12.3328 12.4798C10.0167 12.4798 7.80127 13.2566 5.68657 14.8103C3.67256 16.2638 2.18723 18.1683 1.23058 20.5239C0.525676 22.1779 0.173225 23.8318 0.173225 25.4858C0.173225 30.5478 3.09353 34.4071 8.93415 37.0634L10.067 37.5896C3.47116 40.5968 0.173225 44.6565 0.173225 49.7687C0.173225 53.2269 1.38163 56.2592 3.79844 58.8654C6.21524 61.4716 9.0852 62.7747 12.4083 62.7747C15.4293 62.7747 18.4252 61.6971 21.3958 59.542L22.3776 58.7902C22.2769 59.7926 22.2266 60.9955 22.2266 62.3988C22.2266 66.1578 23.4098 69.2276 25.7763 71.6083C28.1427 73.9889 31.1386 75.1793 34.7638 75.1793C38.7414 75.1793 41.8254 73.9388 44.0156 71.4579C46.2058 68.977 47.301 65.7318 47.301 61.7222V58.7902C51.0269 61.4465 54.35 62.7747 57.2703 62.7747C60.543 62.7747 63.3752 61.4591 65.7669 58.8278C68.1585 56.1965 69.3543 53.1768 69.3543 49.7687C69.3543 44.6565 66.434 40.7722 60.5934 38.1159L59.4605 37.5896C66.0564 34.5825 69.3543 30.5478 69.3543 25.4858C69.3543 22.228 68.1711 19.2459 65.8046 16.5394C63.4382 13.833 60.5808 12.4798 57.2325 12.4798C53.8842 12.4798 50.9262 13.5323 48.3583 15.6373L47.301 16.4643ZM40.9568 29.1696C46.7975 20.6994 52.2101 16.4643 57.1948 16.4643C59.2591 16.4643 61.1347 17.3915 62.8214 19.2459C64.5081 21.1003 65.3515 23.1803 65.3515 25.4858C65.3515 31.7006 58.6046 35.3844 45.1107 36.5371V38.7173C51.8073 39.2686 56.8549 40.4715 60.2535 42.3259C63.6522 44.1804 65.3515 46.6613 65.3515 49.7687C65.3515 52.0241 64.5333 54.0915 62.8969 55.971C61.2605 57.8505 59.3598 58.7902 57.1948 58.7902C52.1094 58.7902 46.6968 54.53 40.9568 46.0097L38.9932 47.1374C41.8631 52.9513 43.2981 57.863 43.2981 61.8726C43.2981 68.0874 40.4533 71.1948 34.7638 71.1948C32.0449 71.1948 29.9302 70.3678 28.4197 68.7139C26.9595 66.9597 26.2294 64.7544 26.2294 62.0981C26.2294 58.0885 27.6644 53.1016 30.5344 47.1374L28.5707 46.0097C22.8308 54.53 17.4181 58.7902 12.3328 58.7902C10.2684 58.7902 8.39289 57.9006 6.70616 56.1213C5.01943 54.3421 4.17606 52.2245 4.17606 49.7687C4.17606 43.5539 10.8978 39.8701 24.3413 38.7173V36.5371C10.8978 35.4345 4.17606 31.7507 4.17606 25.4858C4.17606 23.2805 4.98166 21.2256 6.59287 19.3211C8.20407 17.4165 10.1174 16.4643 12.3328 16.4643C17.3174 16.4643 22.7301 20.6994 28.5707 29.1696L30.5344 28.1171C27.6644 22.2531 26.2294 17.2411 26.2294 13.0812C26.2294 10.4249 26.9595 8.2196 28.4197 6.46542C29.9302 4.81147 32.0449 3.9845 34.7638 3.9845C40.4533 3.9845 43.2981 7.06685 43.2981 13.2316C43.2981 17.2912 41.8631 22.2531 38.9932 28.1171L40.9568 29.1696Z" fill="#C79F6D"/>
</svg>
