<svg width="22" height="23" viewBox="0 0 22 23" fill="none" xmlns="http://www.w3.org/2000/svg">
<path d="M10.6087 2.35863C13.4413 2.35863 13.7768 2.3698 14.8955 2.4227C15.9298 2.47163 16.4915 2.65075 16.8654 2.80129C17.3605 3.00075 17.714 3.23906 18.0852 3.6238C18.4564 4.00854 18.6863 4.37486 18.8787 4.88805C19.024 5.27554 19.1968 5.85774 19.2441 6.92973C19.2951 8.08919 19.3059 8.43692 19.3059 11.3728C19.3059 14.3087 19.2951 14.6565 19.2441 15.8159C19.1968 16.8879 19.024 17.4701 18.8787 17.8576C18.6863 18.3708 18.4564 18.7371 18.0852 19.1219C17.714 19.5066 17.3605 19.7449 16.8654 19.9443C16.4915 20.0949 15.9298 20.274 14.8955 20.3229C13.777 20.3758 13.4415 20.387 10.6087 20.387C7.77585 20.387 7.44035 20.3758 6.32187 20.3229C5.28754 20.274 4.72581 20.0949 4.35199 19.9443C3.8568 19.7449 3.50336 19.5066 3.13215 19.1219C2.76094 18.7371 2.53101 18.3708 2.33861 17.8576C2.19332 17.4701 2.0205 16.8879 1.97329 15.8159C1.92225 14.6565 1.91147 14.3087 1.91147 11.3728C1.91147 8.43692 1.92225 8.08919 1.97329 6.92978C2.0205 5.85774 2.19332 5.27554 2.33861 4.88805C2.53101 4.37486 2.76094 4.00854 3.13215 3.6238C3.50336 3.23906 3.8568 3.00075 4.35199 2.80129C4.72581 2.65075 5.28753 2.47163 6.32183 2.4227C7.44052 2.3698 7.77602 2.35863 10.6087 2.35863ZM10.6087 0.377441C7.7275 0.377441 7.36627 0.390099 6.23474 0.443609C5.10553 0.497032 4.33439 0.682877 3.65955 0.954705C2.96194 1.2357 2.37032 1.61167 1.78055 2.22293C1.19078 2.8342 0.828034 3.44738 0.556922 4.17042C0.294653 4.86985 0.115343 5.6691 0.0637986 6.83947C0.0121702 8.0122 0 8.38664 0 11.3728C0 14.359 0.0121702 14.7334 0.0637986 15.9062C0.115343 17.0765 0.294653 17.8758 0.556922 18.5752C0.828034 19.2982 1.19078 19.9115 1.78055 20.5227C2.37032 21.134 2.96194 21.51 3.65955 21.7909C4.33439 22.0628 5.10553 22.2486 6.23474 22.302C7.36627 22.3556 7.7275 22.3682 10.6087 22.3682C13.4898 22.3682 13.8511 22.3556 14.9826 22.302C16.1118 22.2486 16.883 22.0628 17.5578 21.7909C18.2554 21.51 18.847 21.134 19.4368 20.5227C20.0266 19.9115 20.3893 19.2983 20.6604 18.5752C20.9227 17.8758 21.102 17.0765 21.1535 15.9062C21.2052 14.7334 21.2174 14.359 21.2174 11.3728C21.2174 8.38664 21.2052 8.0122 21.1535 6.83947C21.102 5.6691 20.9227 4.86985 20.6604 4.17042C20.3893 3.44738 20.0266 2.8342 19.4368 2.22293C18.847 1.61167 18.2554 1.2357 17.5578 0.954705C16.883 0.682877 16.1118 0.497032 14.9826 0.443609C13.8511 0.390099 13.4898 0.377441 10.6087 0.377441ZM10.6087 5.72654C7.59999 5.72654 5.16095 8.25448 5.16095 11.3728C5.16095 14.4912 7.59999 17.0191 10.6087 17.0191C13.6174 17.0191 16.0564 14.4912 16.0564 11.3728C16.0564 8.25448 13.6174 5.72654 10.6087 5.72654ZM10.6087 15.038C8.65568 15.038 7.07242 13.397 7.07242 11.3728C7.07242 9.34865 8.65568 7.70768 10.6087 7.70768C12.5617 7.70768 14.1449 9.34865 14.1449 11.3728C14.1449 13.397 12.5617 15.038 10.6087 15.038ZM17.5447 5.50346C17.5447 6.23218 16.9747 6.82293 16.2716 6.82293C15.5685 6.82293 14.9986 6.23218 14.9986 5.50346C14.9986 4.77475 15.5685 4.18404 16.2716 4.18404C16.9747 4.18404 17.5447 4.77475 17.5447 5.50346Z" fill="white"/>
</svg>
