<svg width="180" height="37" viewBox="0 0 180 37" fill="none" xmlns="http://www.w3.org/2000/svg">
<path d="M26.5817 28.1381L21.4866 18.7876C22.4932 18.3067 23.3423 17.5676 23.9402 16.6517C24.5381 15.7358 24.8616 14.6787 24.875 13.5971C24.875 10.8133 22.8465 8.47866 19.997 7.84936C19.8954 7.82804 19.7916 7.81757 19.6876 7.81814H12.509V28.1381H14.2556V9.50426H19.5753C19.7247 9.50433 19.873 9.52785 20.0145 9.57392C21.8584 10.1768 23.1758 11.7524 23.1758 13.5971C23.1758 15.9846 20.9701 17.9205 18.2753 17.8821V11.5723H16.4963V28.1453H18.2753V19.5129H18.3602C18.9124 19.5136 19.4628 19.4508 19.9995 19.3256L24.8027 28.1381H26.5817Z" fill="url(#paint0_linear)"/>
<path d="M18.2399 6.55565e-07C14.6319 0.000484269 11.1051 1.07085 8.10543 3.07575C5.10576 5.08065 2.76797 7.93004 1.38769 11.2636C0.00741536 14.5971 -0.353353 18.2651 0.351008 21.8037C1.05537 25.3423 2.79322 28.5925 5.3448 31.1434C7.89639 33.6943 11.1471 35.4313 14.6859 36.1347C18.2246 36.8381 21.8925 36.4764 25.2257 35.0952C28.5589 33.714 31.4076 31.3755 33.4117 28.3753C35.4158 25.3751 36.4852 21.8479 36.4848 18.2399C36.4848 15.8442 36.0128 13.472 35.0959 11.2587C34.1789 9.04539 32.8349 7.03442 31.1407 5.34062C29.4464 3.64683 27.4351 2.30338 25.2216 1.38703C23.008 0.470674 20.6357 -0.000641627 18.2399 6.55565e-07ZM30.4333 30.4333C28.8376 32.0596 26.9354 33.3535 24.8368 34.2403C22.7381 35.1272 20.4844 35.5893 18.2061 35.6001C15.9277 35.6109 13.6698 35.1702 11.5628 34.3033C9.45581 33.4363 7.54147 32.1605 5.93042 30.5495C4.31936 28.9384 3.04352 27.0241 2.17662 24.9171C1.30971 22.81 0.868924 20.5521 0.879725 18.2738C0.890525 15.9954 1.3527 13.7418 2.23954 11.6431C3.12638 9.54443 4.42031 7.64227 6.04657 6.04656C7.64228 4.4203 9.54443 3.12638 11.6431 2.23953C13.7418 1.35269 15.9954 0.890518 18.2738 0.879718C20.5522 0.868918 22.8101 1.3097 24.9171 2.17661C27.0241 3.04352 28.9384 4.31935 30.5495 5.93041C32.1605 7.54147 33.4364 9.4558 34.3033 11.5628C35.1702 13.6698 35.611 15.9277 35.6002 18.2061C35.5894 20.4844 35.1272 22.7381 34.2403 24.8367C33.3535 26.9354 32.0596 28.8376 30.4333 30.4333Z" fill="url(#paint1_linear)"/>
<path d="M18.2448 1.5636C14.9458 1.56312 11.7208 2.54096 8.97766 4.37346C6.23448 6.20595 4.09635 8.81079 2.83367 11.8585C1.57099 14.9063 1.24049 18.26 1.88396 21.4956C2.52744 24.7312 4.11599 27.7033 6.4487 30.036C8.78141 32.3687 11.7535 33.9573 14.9891 34.6007C18.2247 35.2442 21.5784 34.9137 24.6262 33.651C27.6739 32.3884 30.2787 30.2502 32.1112 27.507C33.9437 24.7639 34.9216 21.5389 34.9211 18.2399C34.9211 13.8171 33.1641 9.57539 30.0367 6.44797C26.9093 3.32056 22.6676 1.5636 18.2448 1.5636ZM29.7272 29.7198C26.6818 32.7651 22.5515 34.476 18.2448 34.476C13.9381 34.476 9.80774 32.7651 6.76243 29.7198C3.71712 26.6745 2.00628 22.5442 2.00628 18.2375C2.00628 13.9307 3.71712 9.80041 6.76243 6.75509C9.80774 3.70978 13.9381 1.99894 18.2448 1.99894C22.5515 1.99894 26.6818 3.70978 29.7272 6.75509C32.7725 9.80041 34.4833 13.9307 34.4833 18.2375C34.4833 22.5442 32.7725 26.6745 29.7272 29.7198Z" fill="url(#paint2_linear)"/>
<path d="M77.0259 5.74133H74.941V19.0075H77.0259V5.74133Z" fill="white"/>
<path d="M83.1576 17.9036H76.7533V19.0099H83.1576V17.9036Z" fill="white"/>
<path d="M100.99 5.74133H98.9055V19.0075H100.99V5.74133Z" fill="white"/>
<path d="M173.866 5.74133H171.781V19.0075H173.866V5.74133Z" fill="white"/>
<path d="M180 17.9036H173.596V19.0099H180V17.9036Z" fill="white"/>
<path d="M70.9065 19.0099H72.7187L67.2328 5.7334H66.0885L60.6027 19.0099H61.3123L62.9036 15.1623H69.3152L70.9065 19.0099ZM63.2032 14.4543L66.1131 7.42551L69.023 14.4543H63.2032Z" fill="white"/>
<path d="M94.8193 19.0099H96.6217L91.1359 5.7334H90.0088L84.5229 19.0099H85.2424L86.8336 15.1623H93.2379L94.8193 19.0099ZM87.116 14.4543L90.0259 7.42551L92.9359 14.4543H87.116Z" fill="white"/>
<path d="M167.641 19.0257H169.443L163.957 5.74915H162.84L157.354 19.0257H158.064L159.648 15.1781H166.052L167.641 19.0257ZM159.938 14.47L162.847 7.44125L165.757 14.47H159.938Z" fill="white"/>
<path d="M56.1064 5.74084C55.107 5.74084 54.2082 5.74084 53.4052 5.77729V5.74084H51.6003V19.0174H53.3929V14.0973C54.2082 14.1233 55.1119 14.1363 56.1064 14.1363C58.594 14.1363 60.61 12.2594 60.61 9.94248C60.61 7.62559 58.594 5.74084 56.1064 5.74084ZM56.0941 13.0013C55.0824 13.0013 54.1886 12.9857 53.3929 12.957V6.63115C54.1959 6.61293 55.0922 6.60252 56.0941 6.60252C57.5872 6.60252 58.7953 7.69328 58.7953 9.80191C58.7953 12.0069 57.5872 13.0013 56.0941 13.0013Z" fill="white"/>
<path d="M131.276 19.0099L127.592 13.8035C129.225 13.1735 130.374 11.6766 130.374 9.92722C130.374 7.61294 128.358 5.7334 125.868 5.7334C124.871 5.7334 123.972 5.7334 123.167 5.76984V5.7334H121.374V19.0099H123.167V14.0898C123.98 14.1158 124.886 14.1289 125.868 14.1289H126.023L129.478 19.0125L131.276 19.0099ZM123.172 6.63933C123.975 6.6211 124.871 6.61069 125.873 6.61069C127.366 6.61069 128.574 7.70145 128.574 9.81008C128.574 12.0072 127.366 13.0095 125.873 13.0095C124.861 13.0095 123.965 12.9938 123.172 12.9652V6.63933Z" fill="white"/>
<path d="M139.585 5.74133C138.347 5.74082 137.137 6.12962 136.107 6.85856C135.077 7.5875 134.274 8.62382 133.8 9.83644C133.326 11.0491 133.202 12.3835 133.444 13.6709C133.685 14.9584 134.281 16.141 135.157 17.0691C136.032 17.9973 137.148 18.6293 138.362 18.8853C139.577 19.1412 140.836 19.0096 141.979 18.5071C143.123 18.0045 144.101 17.1536 144.788 16.062C145.476 14.9703 145.843 13.687 145.842 12.3744C145.842 10.6152 145.183 8.92805 144.01 7.68411C142.836 6.44017 141.245 5.74133 139.585 5.74133ZM139.585 18.3462C137.142 18.3462 135.165 15.6727 135.165 12.3744C135.165 9.07609 137.144 6.40516 139.585 6.40516C142.026 6.40516 144.005 9.07869 144.005 12.3744C144.005 15.6701 142.026 18.3462 139.585 18.3462Z" fill="white"/>
<path d="M112.306 6.97006C112.306 6.97006 110.3 5.74133 108.465 5.74133C106.631 5.74133 103.989 6.13963 103.989 9.32339C103.989 12.5072 107.38 12.8039 108.826 13.2465C110.273 13.689 111.468 14.1003 111.468 15.9565C111.468 17.8126 109.583 18.2681 108.416 18.2343C106.039 18.1692 103.996 16.3105 103.996 16.3105L103.505 16.9587C104.85 18.2569 106.597 18.9868 108.416 19.0101C111.419 19.0101 112.949 17.3127 112.949 15.8393C112.949 14.4231 112.384 11.9162 107.869 11.4138C107.435 11.3454 107.02 11.1792 106.653 10.9264C106.285 10.6735 105.973 10.34 105.737 9.94817C104.966 8.45391 105.541 6.47024 108.416 6.61602C109.581 6.71799 110.707 7.1124 111.699 7.76666C111.924 7.52131 112.127 7.25466 112.306 6.97006Z" fill="white"/>
<path d="M156.843 5.74133L152.878 12.2859L148.764 5.74133H146.825L151.34 12.9289V19.0257H153.28V12.9289L157.637 5.74133H156.843Z" fill="white"/>
<path d="M51.6003 30.9148V26.2081H53.1916C53.5147 26.195 53.8366 26.2572 54.1345 26.3904C54.3593 26.4932 54.5487 26.6668 54.6772 26.8876C54.7952 27.0996 54.8564 27.3417 54.854 27.5879C54.8578 27.8757 54.7714 28.1568 54.6085 28.387C54.4109 28.6446 54.1363 28.8228 53.83 28.8921L54.9081 30.9148H54.2107L53.2112 28.9728H52.1971V30.9148H51.6003ZM52.1921 28.5276H53.1498C53.4477 28.5558 53.7444 28.4628 53.9798 28.2673C54.0656 28.1807 54.1332 28.0759 54.178 27.9597C54.2229 27.8435 54.244 27.7185 54.2401 27.5931C54.2453 27.4696 54.2249 27.3464 54.1804 27.2321C54.1358 27.1179 54.0682 27.0154 53.9823 26.9318C53.74 26.7442 53.4412 26.6572 53.1425 26.6871H52.1921V28.5276Z" fill="url(#paint3_linear)"/>
<path d="M58.0414 30.9145V26.2079H61.0913V26.6713H58.6357V28.3139H60.8826V28.7695H58.6357V30.4434H61.0913V30.9067L58.0414 30.9145Z" fill="url(#paint4_linear)"/>
<path d="M65.8503 30.9954C65.5271 31.0031 65.2059 30.9393 64.9073 30.8079C64.6585 30.7005 64.4438 30.5198 64.2885 30.2873C64.1398 30.0579 64.0633 29.7845 64.07 29.5063H64.6888C64.6873 29.6853 64.7332 29.8612 64.8214 30.0139C64.9173 30.1736 65.0534 30.3016 65.2143 30.3836C65.4132 30.4817 65.631 30.5289 65.8503 30.5216C66.1252 30.5405 66.398 30.4597 66.6238 30.2925C66.7094 30.2278 66.7791 30.1422 66.827 30.043C66.8748 29.9438 66.8995 29.8338 66.8989 29.7224C66.9066 29.5599 66.8625 29.3994 66.7736 29.2668C66.6813 29.1476 66.5646 29.0523 66.4323 28.9883C66.2743 28.9102 66.1099 28.8475 65.9412 28.8008C65.7545 28.7462 65.563 28.6863 65.3592 28.6186C65.0478 28.532 64.759 28.3718 64.5144 28.15C64.4229 28.0558 64.3511 27.9422 64.3037 27.8166C64.2563 27.691 64.2344 27.5563 64.2394 27.4211C64.2323 27.183 64.2968 26.9487 64.4236 26.7521C64.56 26.5501 64.746 26.3916 64.9614 26.2939C65.2234 26.1785 65.5053 26.1227 65.7889 26.1299C66.0706 26.1233 66.3503 26.181 66.6091 26.2991C66.8267 26.3978 67.0144 26.5581 67.1518 26.7625C67.2814 26.9597 67.3516 27.1938 67.3531 27.4341H66.7319C66.7306 27.2979 66.6941 27.1646 66.6263 27.0488C66.55 26.9147 66.4393 26.8064 66.3071 26.7365C66.14 26.6494 65.9553 26.6074 65.7693 26.6141C65.5354 26.5982 65.3033 26.6671 65.1112 26.8093C65.0282 26.8724 64.9612 26.9563 64.9162 27.0535C64.8712 27.1507 64.8496 27.2582 64.8533 27.3664C64.8481 27.4534 64.8616 27.5405 64.8926 27.6212C64.9236 27.7019 64.9715 27.7741 65.0326 27.8324C65.179 27.9519 65.3457 28.0402 65.5237 28.0927L66.2604 28.3296C66.4793 28.4036 66.6913 28.4986 66.8939 28.6134C67.0708 28.7113 67.2219 28.8545 67.3335 29.0299C67.446 29.2264 67.5015 29.4536 67.4931 29.6833C67.4923 29.9097 67.4282 30.1307 67.309 30.3185C67.1704 30.5314 66.9792 30.6998 66.7564 30.8053C66.4711 30.9379 66.1618 31.0027 65.8503 30.9954Z" fill="url(#paint5_linear)"/>
<path d="M71.653 30.9145V26.6713H70.1796V26.2079H73.7157V26.6713H72.2424V30.9145H71.653Z" fill="url(#paint6_linear)"/>
<path d="M75.8423 30.9145L77.657 26.2079H78.2832L80.093 30.9145H79.4668L79.0174 29.704H76.9178L76.4611 30.9145H75.8423ZM77.0946 29.2485H78.8455L77.9713 26.9212L77.0946 29.2485Z" fill="url(#paint7_linear)"/>
<path d="M84.6629 30.9952C84.3476 31.0002 84.0349 30.9355 83.7445 30.8052C83.4738 30.6808 83.2445 30.4732 83.0864 30.2091C82.9094 29.8952 82.824 29.5329 82.8408 29.1678V26.2079H83.4302V29.186C83.4142 29.369 83.437 29.5535 83.4969 29.726C83.5568 29.8985 83.6523 30.0547 83.7764 30.183C84.0318 30.3981 84.3518 30.5081 84.6776 30.4928C85.0013 30.509 85.3194 30.3988 85.5715 30.183C85.6934 30.0533 85.787 29.8968 85.8456 29.7245C85.9041 29.5522 85.9262 29.3684 85.9104 29.186V26.2079H86.4997V29.1808C86.5165 29.546 86.4311 29.9083 86.2541 30.2221C86.0948 30.486 85.8648 30.6936 85.5936 30.8182C85.2982 30.9445 84.9813 31.0048 84.6629 30.9952Z" fill="url(#paint8_linear)"/>
<path d="M90.0898 30.9147V26.2081H91.681C92.0049 26.1952 92.3275 26.2574 92.6264 26.3903C92.8509 26.4924 93.0398 26.6662 93.1667 26.8875C93.28 27.0983 93.3376 27.3374 93.3337 27.58C93.3374 27.8678 93.2511 28.1489 93.0881 28.3792C92.8911 28.6374 92.6162 28.8157 92.3097 28.8842L93.3877 30.9069H92.6952L91.6958 28.9649H90.6816V30.9069L90.0898 30.9147ZM90.6816 28.5276H91.6393C91.9379 28.5557 92.2354 28.4626 92.4717 28.2672C92.557 28.1803 92.6242 28.0754 92.6691 27.9593C92.7139 27.8431 92.7353 27.7184 92.732 27.593C92.7372 27.4695 92.7168 27.3463 92.6723 27.2321C92.6277 27.1178 92.5601 27.0153 92.4742 26.9318C92.2306 26.7448 91.9314 26.6579 91.6319 26.6871H90.6816V28.5276Z" fill="url(#paint9_linear)"/>
<path d="M96.2583 30.9145L98.0755 26.2079H98.7016L100.511 30.9145H99.8852L99.4334 29.704H97.3363L96.8771 30.9145H96.2583ZM97.5107 29.2485H99.2566L98.3849 26.9212L97.5107 29.2485Z" fill="url(#paint10_linear)"/>
<path d="M103.47 30.9145V26.2079H104.06L106.687 29.98V26.2079H107.279V30.9145H106.687L104.06 27.1424V30.9145H103.47Z" fill="url(#paint11_linear)"/>
<path d="M111.424 30.9145V26.6713H109.951V26.2079H113.485V26.6713H112.011V30.9145H111.424Z" fill="url(#paint12_linear)"/>
<defs>
<linearGradient id="paint0_linear" x1="24.9574" y1="29.1373" x2="11.8615" y2="8.52184" gradientUnits="userSpaceOnUse">
<stop stop-color="#77653B"/>
<stop offset="0.49" stop-color="#FFD682"/>
<stop offset="1" stop-color="#B18A65"/>
</linearGradient>
<linearGradient id="paint1_linear" x1="31.6534" y1="31.9077" x2="5.32039" y2="5.07588" gradientUnits="userSpaceOnUse">
<stop stop-color="#6F4727"/>
<stop offset="0.49" stop-color="#DFC19E"/>
<stop offset="1" stop-color="#937645"/>
</linearGradient>
<linearGradient id="paint2_linear" x1="31.6474" y1="31.8966" x2="5.33568" y2="5.08649" gradientUnits="userSpaceOnUse">
<stop stop-color="#6F4727"/>
<stop offset="0.49" stop-color="#DFC19E"/>
<stop offset="1" stop-color="#937645"/>
</linearGradient>
<linearGradient id="paint3_linear" x1="489.873" y1="1381.04" x2="1329.38" y2="1383.41" gradientUnits="userSpaceOnUse">
<stop stop-color="#77653B"/>
<stop offset="0.49" stop-color="#FFD682"/>
<stop offset="1" stop-color="#B18A65"/>
</linearGradient>
<linearGradient id="paint4_linear" x1="462.151" y1="1379.98" x2="1236.22" y2="1382" gradientUnits="userSpaceOnUse">
<stop stop-color="#77653B"/>
<stop offset="0.49" stop-color="#FFD682"/>
<stop offset="1" stop-color="#B18A65"/>
</linearGradient>
<linearGradient id="paint5_linear" x1="517.799" y1="1425.45" x2="1386.91" y2="1427.91" gradientUnits="userSpaceOnUse">
<stop stop-color="#77653B"/>
<stop offset="0.49" stop-color="#FFD682"/>
<stop offset="1" stop-color="#B18A65"/>
</linearGradient>
<linearGradient id="paint6_linear" x1="538.713" y1="1379" x2="1436.18" y2="1381.71" gradientUnits="userSpaceOnUse">
<stop stop-color="#77653B"/>
<stop offset="0.49" stop-color="#FFD682"/>
<stop offset="1" stop-color="#B18A65"/>
</linearGradient>
<linearGradient id="paint7_linear" x1="639.1" y1="1378.67" x2="1717.88" y2="1382.58" gradientUnits="userSpaceOnUse">
<stop stop-color="#77653B"/>
<stop offset="0.49" stop-color="#FFD682"/>
<stop offset="1" stop-color="#B18A65"/>
</linearGradient>
<linearGradient id="paint8_linear" x1="568.229" y1="1402.18" x2="1497.88" y2="1405.04" gradientUnits="userSpaceOnUse">
<stop stop-color="#77653B"/>
<stop offset="0.49" stop-color="#FFD682"/>
<stop offset="1" stop-color="#B18A65"/>
</linearGradient>
<linearGradient id="paint9_linear" x1="527.095" y1="1378.06" x2="1364.08" y2="1380.41" gradientUnits="userSpaceOnUse">
<stop stop-color="#77653B"/>
<stop offset="0.49" stop-color="#FFD682"/>
<stop offset="1" stop-color="#B18A65"/>
</linearGradient>
<linearGradient id="paint10_linear" x1="659.841" y1="1377.07" x2="1739.25" y2="1380.99" gradientUnits="userSpaceOnUse">
<stop stop-color="#77653B"/>
<stop offset="0.49" stop-color="#FFD682"/>
<stop offset="1" stop-color="#B18A65"/>
</linearGradient>
<linearGradient id="paint11_linear" x1="608.157" y1="1376.45" x2="1574.76" y2="1379.6" gradientUnits="userSpaceOnUse">
<stop stop-color="#77653B"/>
<stop offset="0.49" stop-color="#FFD682"/>
<stop offset="1" stop-color="#B18A65"/>
</linearGradient>
<linearGradient id="paint12_linear" x1="578.193" y1="1375.94" x2="1475" y2="1378.64" gradientUnits="userSpaceOnUse">
<stop stop-color="#77653B"/>
<stop offset="0.49" stop-color="#FFD682"/>
<stop offset="1" stop-color="#B18A65"/>
</linearGradient>
</defs>
</svg>
