<svg width="20" height="22" viewBox="0 0 20 22" fill="none" xmlns="http://www.w3.org/2000/svg">
<path d="M4.02222 9.72789C5.62222 12.9869 8.2 15.6472 11.3444 17.317L13.7889 14.7835C14.0889 14.4725 14.5333 14.3689 14.9222 14.5071C16.1667 14.9332 17.5111 15.1635 18.8889 15.1635C19.5 15.1635 20 15.6817 20 16.3151V20.3342C20 20.9676 19.5 21.4858 18.8889 21.4858C8.45556 21.4858 0 12.7221 0 1.90845C0 1.27506 0.5 0.756836 1.11111 0.756836H5C5.61111 0.756836 6.11111 1.27506 6.11111 1.90845C6.11111 3.34796 6.33333 4.7299 6.74444 6.0197C6.86667 6.42276 6.77778 6.87189 6.46667 7.19434L4.02222 9.72789Z" fill="white"/>
</svg>
