<svg width="84" height="59" viewBox="0 0 84 59" fill="none" xmlns="http://www.w3.org/2000/svg">
<path fill-rule="evenodd" clip-rule="evenodd" d="M40.8956 0.0174223C40.6846 0.0319501 40.1905 0.0464427 39.7974 0.0496478C39.4043 0.0528182 38.7376 0.071388 38.3157 0.0908978C37.2092 0.142076 35.5016 0.195274 34.385 0.213356C33.8401 0.22217 33.4176 0.24283 33.4176 0.260667C33.4176 0.278295 33.0201 0.301011 32.5199 0.311985C30.931 0.346824 28.8909 0.444581 28.4578 0.506629C28.328 0.525233 27.9877 0.540458 27.7015 0.540458C27.3924 0.540458 27.1726 0.554603 27.1598 0.575297C27.147 0.595991 26.927 0.610136 26.6174 0.610136C26.3127 0.610136 26.0965 0.623828 26.0965 0.643129C26.0965 0.661524 25.8839 0.683541 25.6171 0.692808C25.3535 0.702005 25.0515 0.718484 24.946 0.729458C24.8406 0.740433 24.4797 0.773565 24.1442 0.803108C23.8086 0.832652 23.4672 0.871879 23.3855 0.890239C23.3037 0.908634 23.1193 0.923685 22.9758 0.923685C22.8251 0.923685 22.7148 0.938387 22.7148 0.958524C22.7148 0.978835 22.5986 0.993363 22.4359 0.993363C22.2732 0.993363 22.157 1.00789 22.157 1.0282C22.157 1.04736 22.0836 1.06304 21.9939 1.06304C21.9042 1.06304 21.7826 1.07771 21.7237 1.09565C21.5675 1.14327 21.2875 1.20574 21.1373 1.22647C21.0654 1.23643 21.0066 1.25859 21.0066 1.27573C21.0066 1.29287 20.9517 1.30691 20.8846 1.30691C20.8175 1.30691 20.7625 1.32259 20.7625 1.34175C20.7625 1.36091 20.7155 1.37659 20.658 1.37659C20.6004 1.37659 20.5534 1.39227 20.5534 1.41143C20.5534 1.43059 20.5223 1.44627 20.4844 1.44627C20.4093 1.44627 20.0202 1.62165 20.0014 1.66401C19.995 1.6784 19.9597 1.69014 19.923 1.69014C19.8862 1.69014 19.8561 1.70582 19.8561 1.72498C19.8561 1.74414 19.832 1.75982 19.8026 1.75982C19.7532 1.75982 19.5828 1.85235 19.5424 1.90116C19.5328 1.91273 19.474 1.94436 19.4116 1.97143C19.3493 1.99853 19.2983 2.03254 19.2983 2.04703C19.2983 2.06152 19.2747 2.07337 19.2457 2.07337C19.2168 2.07337 19.1439 2.1204 19.0837 2.17788C19.0235 2.23537 18.9616 2.2824 18.9461 2.2824C18.9307 2.2824 18.8788 2.32159 18.8309 2.3695C18.7829 2.4174 18.7272 2.45659 18.7071 2.45659C18.6869 2.45659 18.6008 2.52714 18.5157 2.61337C18.4307 2.6996 18.3445 2.77014 18.3242 2.77014C18.3039 2.77014 18.2873 2.78582 18.2873 2.80498C18.2873 2.82414 18.2715 2.83982 18.2522 2.83982C18.233 2.83982 18.1476 2.91037 18.0625 2.9966C17.9775 3.08282 17.8993 3.15337 17.8887 3.15337C17.864 3.15337 16.9277 4.08866 16.9277 4.11336C16.9277 4.14729 16.7572 4.30305 16.7201 4.30305C16.7 4.30305 16.6837 4.31821 16.6837 4.33671C16.6837 4.36806 16.5637 4.51324 16.3786 4.70597C16.3355 4.75087 16.3002 4.79672 16.3002 4.8078C16.3002 4.81888 16.2492 4.88145 16.1869 4.94684C16.0404 5.10052 15.9864 5.16633 15.9864 5.19113C15.9864 5.20218 15.9315 5.26607 15.8644 5.33313C15.7973 5.4002 15.7424 5.46831 15.7424 5.48454C15.7424 5.50074 15.6796 5.57864 15.6029 5.65762C15.5262 5.7366 15.4635 5.81551 15.4635 5.833C15.4635 5.85049 15.4086 5.92132 15.3415 5.99037C15.2743 6.05945 15.2194 6.13917 15.2194 6.16756C15.2194 6.19595 15.2037 6.21919 15.1846 6.21919C15.1654 6.21919 15.1497 6.23556 15.1497 6.2556C15.1497 6.27563 15.1144 6.32855 15.0713 6.37318C15.0281 6.41777 14.9615 6.49804 14.9231 6.55152C14.8848 6.605 14.8338 6.66858 14.8098 6.69279C14.7858 6.717 14.7662 6.75797 14.7662 6.78386C14.7662 6.80974 14.7348 6.8535 14.6965 6.88113C14.6581 6.90876 14.6268 6.94764 14.6268 6.96756C14.6268 6.98749 14.5876 7.04606 14.5396 7.09772C14.4917 7.14935 14.4525 7.20799 14.4525 7.22798C14.4525 7.24798 14.4368 7.26436 14.4176 7.26436C14.3984 7.26436 14.3827 7.28787 14.3827 7.31661C14.3827 7.34536 14.367 7.36887 14.3479 7.36887C14.3287 7.36887 14.313 7.38566 14.313 7.40618C14.313 7.42674 14.2934 7.46538 14.2694 7.4921C14.166 7.60738 14.1387 7.64678 14.1387 7.68096C14.1387 7.70092 14.123 7.71726 14.1038 7.71726C14.0847 7.71726 14.069 7.74287 14.069 7.77415C14.069 7.80544 14.0404 7.85637 14.0055 7.88738C13.9706 7.91835 13.9123 7.99465 13.8759 8.05694C13.8396 8.11923 13.7976 8.17017 13.7825 8.17017C13.7675 8.17017 13.7552 8.20152 13.7552 8.23984C13.7552 8.27817 13.7395 8.30952 13.7204 8.30952C13.7012 8.30952 13.6855 8.33304 13.6855 8.36178C13.6855 8.39052 13.6698 8.41404 13.6506 8.41404C13.6315 8.41404 13.6158 8.43867 13.6158 8.46877C13.6158 8.49891 13.5962 8.54538 13.5722 8.5721C13.4687 8.68738 13.4415 8.72679 13.4415 8.76096C13.4415 8.78093 13.4258 8.79727 13.4066 8.79727C13.3874 8.79727 13.3717 8.82517 13.3717 8.85924C13.3717 8.89335 13.3404 8.94383 13.302 8.97146C13.2637 8.99909 13.2323 9.04957 13.2323 9.08368C13.2323 9.11775 13.2201 9.14565 13.2053 9.14565C13.1905 9.14565 13.1489 9.20053 13.1127 9.26759C13.0765 9.33466 13.0338 9.38953 13.0176 9.38953C13.0015 9.38953 12.9882 9.42088 12.9882 9.4592C12.9882 9.49753 12.9743 9.52888 12.9571 9.52888C12.9401 9.52888 12.9165 9.567 12.9048 9.61354C12.8931 9.66012 12.8637 9.71889 12.8396 9.74419C12.7614 9.82592 12.6745 9.97792 12.6745 10.0328C12.6745 10.0622 12.6588 10.0863 12.6396 10.0863C12.6204 10.0863 12.6048 10.1098 12.6048 10.1386C12.6048 10.1673 12.593 10.1911 12.5786 10.1914C12.5642 10.1917 12.5059 10.2858 12.4491 10.4004C12.3922 10.5151 12.3334 10.6089 12.3183 10.6089C12.3033 10.6089 12.291 10.6324 12.291 10.6611C12.291 10.6899 12.2753 10.7134 12.2561 10.7134C12.237 10.7134 12.2213 10.7448 12.2213 10.7831C12.2213 10.8214 12.2056 10.8528 12.1864 10.8528C12.1672 10.8528 12.1515 10.875 12.1515 10.9022C12.1515 10.9643 12.0385 11.1658 12.0034 11.1661C11.989 11.1662 11.9772 11.1977 11.9772 11.236C11.9772 11.2743 11.9615 11.3057 11.9424 11.3057C11.9232 11.3057 11.9075 11.3357 11.9075 11.3724C11.9075 11.4092 11.8958 11.4444 11.8814 11.4508C11.867 11.4572 11.7925 11.5879 11.7158 11.7411C11.6391 11.8944 11.5646 12.0251 11.5502 12.0315C11.5358 12.0379 11.524 12.0731 11.524 12.1098C11.524 12.1466 11.5083 12.1766 11.4892 12.1766C11.47 12.1766 11.4543 12.208 11.4543 12.2463C11.4543 12.2846 11.4386 12.316 11.4194 12.316C11.4003 12.316 11.3846 12.3379 11.3846 12.3647C11.3846 12.3915 11.3455 12.4816 11.2978 12.565C11.2501 12.6484 11.2109 12.7441 11.2107 12.7776C11.2104 12.8111 11.1946 12.8386 11.1754 12.8386C11.1562 12.8386 11.1405 12.8778 11.1405 12.9257C11.1405 12.9736 11.1248 13.0128 11.1057 13.0128C11.0865 13.0128 11.0708 13.0441 11.0708 13.0824C11.0708 13.1208 11.0551 13.1521 11.0359 13.1521C11.0168 13.1521 11.0011 13.1679 11.0011 13.1871C11.0011 13.2064 10.9619 13.3034 10.9139 13.4027C10.866 13.502 10.8268 13.6116 10.8268 13.6464C10.8268 13.6811 10.8111 13.7095 10.7919 13.7095C10.7727 13.7095 10.7571 13.7409 10.7571 13.7792C10.7571 13.8175 10.7414 13.8489 10.7222 13.8489C10.703 13.8489 10.6873 13.8803 10.6873 13.9188C10.6873 13.9572 10.6481 14.0698 10.6002 14.1691C10.5522 14.2684 10.513 14.3781 10.513 14.4128C10.513 14.4476 10.4973 14.476 10.4782 14.476C10.459 14.476 10.4433 14.5309 10.4433 14.5979C10.4433 14.665 10.4276 14.7199 10.4084 14.7199C10.3893 14.7199 10.3736 14.7904 10.3736 14.8766C10.3736 14.9629 10.3579 15.0334 10.3387 15.0334C10.3159 15.0334 10.3036 14.4261 10.303 13.2828C10.3025 12.1428 10.2891 11.4835 10.2646 11.3928C10.2439 11.3161 10.2191 11.1945 10.2094 11.1226C10.1998 11.0506 10.1778 10.983 10.1607 10.9724C10.1435 10.9618 10.1295 10.8836 10.1295 10.7984C10.1295 10.7133 10.1138 10.6437 10.0947 10.6437C10.0755 10.6437 10.0598 10.5732 10.0598 10.487C10.0598 10.4007 10.0441 10.3302 10.0249 10.3302C10.0058 10.3302 9.99008 10.2837 9.99008 10.2268C9.99008 10.1233 9.89097 9.87002 9.84191 9.84825C9.82755 9.84184 9.81577 9.80658 9.81577 9.76986C9.81577 9.73314 9.80008 9.70308 9.78091 9.70308C9.76173 9.70308 9.74604 9.67956 9.74604 9.65082C9.74604 9.62208 9.73429 9.59853 9.7199 9.59846C9.7055 9.59842 9.66237 9.55142 9.62402 9.49404C9.58568 9.43666 9.53471 9.38967 9.51072 9.38963C9.48677 9.38956 9.46714 9.37385 9.46714 9.35469C9.46714 9.33553 9.44361 9.31985 9.41485 9.31985C9.38609 9.31985 9.36256 9.30417 9.36256 9.28501C9.36256 9.26585 9.33118 9.25017 9.29283 9.25017C9.25448 9.25017 9.22311 9.23519 9.22311 9.2169C9.22311 9.19861 9.1682 9.17335 9.10109 9.16078C9.03398 9.1482 8.97907 9.12343 8.97907 9.10573C8.97907 9.02825 6.471 9.12848 6.24311 9.21505C6.19228 9.23435 6.0742 9.25017 5.9807 9.25017C5.8872 9.25017 5.80102 9.26585 5.78917 9.28501C5.77731 9.30417 5.69012 9.31985 5.59537 9.31985C5.50061 9.31985 5.42311 9.33553 5.42311 9.35469C5.42311 9.37385 5.36036 9.38953 5.28366 9.38953C5.20696 9.38953 5.14421 9.4052 5.14421 9.42437C5.14421 9.44353 5.11887 9.4592 5.08787 9.4592C5.00999 9.4592 4.67618 9.57525 4.66196 9.60727C4.65555 9.62166 4.62027 9.6334 4.58352 9.6334C4.54678 9.6334 4.51669 9.64908 4.51669 9.66824C4.51669 9.6874 4.47747 9.70308 4.42953 9.70308C4.3816 9.70308 4.34238 9.71875 4.34238 9.73792C4.34238 9.75708 4.311 9.77275 4.27265 9.77275C4.2343 9.77275 4.20293 9.78843 4.20293 9.80759C4.20293 9.82675 4.18794 9.84243 4.1696 9.84243C4.12717 9.84243 3.89548 9.99231 3.79455 10.085C3.75209 10.1241 3.70823 10.156 3.69708 10.156C3.67177 10.156 3.50568 10.3204 3.50568 10.3454C3.50568 10.3555 3.43509 10.4374 3.3488 10.5274C3.26252 10.6174 3.19192 10.7117 3.19192 10.7371C3.19192 10.7624 3.17623 10.7831 3.15706 10.7831C3.13788 10.7831 3.1222 10.8144 3.1222 10.8528C3.1222 10.8911 3.10971 10.9224 3.09448 10.9224C3.07925 10.9224 3.03765 10.993 3.00206 11.0792C2.9665 11.1654 2.92404 11.236 2.90776 11.236C2.89148 11.236 2.87816 11.2742 2.87816 11.321C2.87816 11.3678 2.86247 11.4158 2.8433 11.4276C2.82412 11.4394 2.80843 11.4952 2.80843 11.5516C2.80843 11.608 2.79275 11.6541 2.77357 11.6541C2.7544 11.6541 2.73871 11.7168 2.73871 11.7934C2.73871 11.8701 2.72518 11.9328 2.70869 11.9328C2.65514 11.9328 2.62084 12.3541 2.62216 12.9953C2.62352 13.6443 2.65521 14.0231 2.70817 14.0231C2.72497 14.0231 2.73871 14.078 2.73871 14.145C2.73871 14.2121 2.7544 14.267 2.77357 14.267C2.79275 14.267 2.80843 14.2929 2.80843 14.3246C2.80843 14.3997 3.04571 14.8254 3.12809 14.8981C3.16319 14.9291 3.19192 14.9722 3.19192 14.9939C3.19192 15.0157 3.20527 15.0334 3.22162 15.0334C3.23794 15.0334 3.30055 15.0805 3.36076 15.1379C3.42093 15.1954 3.49386 15.2425 3.5228 15.2425C3.55173 15.2425 3.57541 15.2543 3.57541 15.2688C3.57541 15.3431 4.04901 15.4852 4.2988 15.4858C4.42047 15.4861 4.51669 15.5017 4.51669 15.5212C4.51669 15.5427 4.70261 15.556 5.00476 15.556C5.29238 15.556 5.49284 15.5697 5.49284 15.5893C5.49284 15.6087 5.75957 15.6302 6.12907 15.6406C6.47902 15.6505 6.98494 15.6708 7.25338 15.6857L7.74146 15.7128L7.75125 16.1396L7.76105 16.5663H7.67281C7.62429 16.5663 7.58458 16.582 7.58458 16.6012C7.58458 16.6203 7.53751 16.636 7.47999 16.636C7.42247 16.636 7.3754 16.6517 7.3754 16.6708C7.3754 16.69 7.33618 16.7057 7.28825 16.7057C7.24031 16.7057 7.20109 16.7214 7.20109 16.7405C7.20109 16.7597 7.17808 16.7754 7.14998 16.7754C7.08695 16.7754 6.83932 16.8876 6.82343 16.9234C6.81701 16.9378 6.77389 16.9496 6.72756 16.9496C6.68122 16.9496 6.64329 16.9652 6.64329 16.9844C6.64329 17.0036 6.59623 17.0192 6.53871 17.0192C6.48118 17.0192 6.43412 17.0349 6.43412 17.0541C6.43412 17.0732 6.40274 17.0889 6.36439 17.0889C6.32605 17.0889 6.29443 17.1007 6.29415 17.115C6.29387 17.1294 6.1843 17.1882 6.05063 17.2457C5.91697 17.3032 5.8074 17.3619 5.80712 17.3763C5.80684 17.3907 5.77522 17.4025 5.73687 17.4025C5.69852 17.4025 5.66715 17.4181 5.66715 17.4373C5.66715 17.4565 5.64487 17.4721 5.61768 17.4721C5.55548 17.4721 5.35391 17.5852 5.3536 17.6202C5.35349 17.6346 5.32201 17.6463 5.28366 17.6463C5.24531 17.6463 5.21394 17.662 5.21394 17.6812C5.21394 17.7003 5.1904 17.716 5.16164 17.716C5.13288 17.716 5.10935 17.7317 5.10935 17.7509C5.10935 17.77 5.0832 17.7857 5.05127 17.7857C4.99225 17.7857 4.44697 18.3202 4.44697 18.378C4.44697 18.3954 4.40774 18.4488 4.35981 18.4967C4.31187 18.5446 4.27265 18.6081 4.27265 18.6377C4.27265 18.6673 4.25697 18.6915 4.23779 18.6915C4.21862 18.6915 4.20293 18.7078 4.20293 18.7278C4.20293 18.7478 4.18703 18.7831 4.16758 18.8062C4.09444 18.8932 3.95889 19.1139 3.95889 19.1459C3.95889 19.1643 3.9432 19.1792 3.92403 19.1792C3.90486 19.1792 3.88917 19.2028 3.88917 19.2315C3.88917 19.2602 3.87348 19.2838 3.85431 19.2838C3.83513 19.2838 3.81944 19.3084 3.81944 19.3385C3.81944 19.3686 3.79985 19.4151 3.77586 19.4418C3.6816 19.5469 3.65684 19.584 3.60853 19.6931C3.58095 19.7554 3.54654 19.8063 3.53204 19.8063C3.51753 19.8063 3.50568 19.8377 3.50568 19.876C3.50568 19.9143 3.48999 19.9457 3.47082 19.9457C3.45164 19.9457 3.43596 19.9617 3.43596 19.9813C3.43596 20.0236 3.25568 20.3064 3.21807 20.3231C3.2037 20.3295 3.19192 20.3648 3.19192 20.4015C3.19192 20.4382 3.17623 20.4683 3.15706 20.4683C3.13788 20.4683 3.1222 20.4996 3.1222 20.538C3.1222 20.5763 3.10651 20.6076 3.08733 20.6076C3.06816 20.6076 3.05247 20.6312 3.05247 20.6599C3.05247 20.6886 3.03849 20.7122 3.02137 20.7122C3.00429 20.7122 2.98045 20.7513 2.96842 20.7992C2.95639 20.8472 2.93115 20.8863 2.91236 20.8863C2.89353 20.8863 2.87816 20.9177 2.87816 20.956C2.87816 20.9943 2.86247 21.0257 2.8433 21.0257C2.82412 21.0257 2.80843 21.0571 2.80843 21.0954C2.80843 21.1337 2.79275 21.1651 2.77357 21.1651C2.7544 21.1651 2.73871 21.1886 2.73871 21.2173C2.73871 21.2461 2.72302 21.2696 2.70385 21.2696C2.68467 21.2696 2.66898 21.3009 2.66898 21.3393C2.66898 21.3776 2.65501 21.4089 2.63789 21.4089C2.62081 21.4089 2.59696 21.4481 2.58493 21.496C2.5729 21.5439 2.54766 21.5831 2.52887 21.5831C2.51005 21.5831 2.49467 21.6145 2.49467 21.6528C2.49467 21.6911 2.47899 21.7225 2.45981 21.7225C2.44064 21.7225 2.42495 21.7538 2.42495 21.7922C2.42495 21.8305 2.40926 21.8618 2.39009 21.8618C2.37091 21.8618 2.35522 21.8854 2.35522 21.9141C2.35522 21.9428 2.33954 21.9664 2.32036 21.9664C2.30119 21.9664 2.2855 21.9977 2.2855 22.036C2.2855 22.0744 2.27232 22.1057 2.25625 22.1057C2.24014 22.1057 2.19702 22.1682 2.16038 22.2447C2.12374 22.3211 2.08197 22.3838 2.06761 22.384C2.05325 22.3842 2.04146 22.4079 2.04146 22.4367C2.04146 22.4654 2.02577 22.4889 2.0066 22.4889C1.98743 22.4889 1.97174 22.5105 1.97174 22.5368C1.97174 22.5939 1.79554 22.9194 1.75563 22.936C1.74025 22.9424 1.7277 22.9698 1.7277 22.997C1.7277 23.0241 1.71201 23.0464 1.69284 23.0464C1.67366 23.0464 1.65798 23.0777 1.65798 23.116C1.65798 23.1544 1.64229 23.1857 1.62311 23.1857C1.60394 23.1857 1.58825 23.2171 1.58825 23.2554C1.58825 23.2937 1.57427 23.3251 1.55715 23.3251C1.54007 23.3251 1.51623 23.3643 1.5042 23.4122C1.49217 23.4601 1.46693 23.4993 1.44814 23.4993C1.42931 23.4993 1.41394 23.5306 1.41394 23.5689C1.41394 23.6073 1.39825 23.6386 1.37908 23.6386C1.3599 23.6386 1.34422 23.67 1.34422 23.7083C1.34422 23.7466 1.33243 23.7782 1.31807 23.7785C1.30371 23.7788 1.24486 23.8883 1.18733 24.0218C1.12981 24.1554 1.07096 24.2649 1.0566 24.2652C1.04224 24.2655 1.03045 24.3127 1.03045 24.3702C1.03045 24.4277 1.01477 24.4747 0.995592 24.4747C0.976418 24.4747 0.96073 24.561 0.96073 24.6664C0.96073 24.7717 0.946367 24.858 0.928831 24.858C0.911295 24.858 0.888669 24.956 0.878524 25.0757C0.868414 25.1955 0.839862 25.4502 0.815075 25.6418C0.763583 26.04 0.763792 26.1218 0.822047 28.4115C0.845649 29.3409 0.871342 30.5049 0.879117 30.9983C0.887728 31.5434 0.906484 31.8954 0.926983 31.8954C0.945564 31.8954 0.96073 31.966 0.96073 32.0522C0.96073 32.1384 0.945878 32.209 0.92775 32.209C0.909517 32.209 0.887414 32.4153 0.878315 32.6706C0.854609 33.3341 0.798341 34.1977 0.772194 34.2993C0.741968 34.4165 0.678414 35.3809 0.659135 36.0151C0.65028 36.3054 0.629084 36.529 0.610363 36.529C0.5907 36.529 0.577244 36.7769 0.577244 37.1387C0.577244 37.4845 0.563438 37.7484 0.54531 37.7484C0.527774 37.7484 0.504556 38.0109 0.493748 38.3319C0.482941 38.6528 0.466068 39.0174 0.456271 39.1419C0.44644 39.2665 0.414471 39.7838 0.385187 40.2916C0.355937 40.7994 0.324143 41.3481 0.314521 41.5109C0.304934 41.6738 0.288444 42.1559 0.27788 42.5822C0.267317 43.0086 0.244936 43.3574 0.228167 43.3574C0.160883 43.3574 0.137141 46.9002 0.176605 51.0481C0.188737 52.3211 0.208505 53.0774 0.229701 53.0774C0.249886 53.0774 0.263483 53.2735 0.263483 53.5647C0.263483 53.8327 0.278404 54.1188 0.296637 54.2005C0.314905 54.2822 0.356565 54.5686 0.389231 54.8368C0.421932 55.1051 0.461919 55.3395 0.478095 55.3576C0.494272 55.3759 0.507519 55.4582 0.507519 55.5406C0.507519 55.6229 0.523207 55.6904 0.542381 55.6904C0.561556 55.6904 0.577244 55.7609 0.577244 55.8471C0.577244 55.9334 0.592932 56.0039 0.612106 56.0039C0.63128 56.0039 0.646968 56.0441 0.646968 56.0932C0.646968 56.2014 0.747965 56.5201 0.790601 56.5465C0.807475 56.5569 0.82128 56.5959 0.82128 56.6331C0.82128 56.6703 0.836968 56.7007 0.856143 56.7007C0.875317 56.7007 0.891005 56.7399 0.891005 56.7878C0.891005 56.8357 0.906693 56.8749 0.925867 56.8749C0.945042 56.8749 0.96073 56.9062 0.96073 56.9446C0.96073 56.9829 0.976418 57.0142 0.995592 57.0142C1.01477 57.0142 1.03045 57.0384 1.03045 57.068C1.03045 57.0976 1.06967 57.1641 1.11761 57.2157C1.16555 57.2674 1.20477 57.3219 1.20477 57.3368C1.20477 57.3883 1.68949 57.8504 1.74346 57.8504C1.77313 57.8504 1.79743 57.866 1.79743 57.8852C1.79743 57.9044 1.82117 57.92 1.85021 57.92C1.87921 57.92 1.93022 57.9334 1.96351 57.9498C2.18506 58.0585 2.29421 58.0925 2.49467 58.115C2.78825 58.148 11.4837 58.1458 11.7245 58.1127C11.8251 58.0988 11.9075 58.0764 11.9075 58.0627C11.9075 58.0491 11.9742 58.0088 12.0557 57.9732C12.1371 57.9376 12.2292 57.8797 12.2602 57.8446C12.2912 57.8094 12.3344 57.7807 12.3561 57.7807C12.3778 57.7807 12.3956 57.7688 12.3956 57.7544C12.3956 57.7399 12.4583 57.6615 12.535 57.5801C12.6117 57.4987 12.6745 57.41 12.6745 57.3829C12.6745 57.3558 12.6863 57.3284 12.7006 57.322C12.743 57.3032 12.9185 56.9143 12.9185 56.8393C12.9185 56.8014 12.9342 56.7704 12.9534 56.7704C12.973 56.7704 12.9882 56.6717 12.9882 56.5439C12.9882 56.4162 13.0034 56.3175 13.0231 56.3175C13.0459 56.3175 13.058 55.6497 13.058 54.3839V52.4503H13.4066C13.6158 52.4503 13.7552 52.4364 13.7552 52.4155C13.7552 52.3927 14.4989 52.3807 15.9167 52.3807C17.3344 52.3807 18.0781 52.3687 18.0781 52.3458C18.0781 52.3239 18.3106 52.311 18.7057 52.311H19.3332L19.5234 52.1194C19.6281 52.014 19.7228 51.9278 19.7341 51.9278C19.7568 51.9278 19.8182 51.8792 19.9434 51.7623C19.9895 51.7192 20.0515 51.6839 20.0812 51.6839C20.1108 51.6839 20.135 51.6682 20.135 51.6491C20.135 51.6299 20.1586 51.6142 20.1873 51.6142C20.2161 51.6142 20.2396 51.6003 20.2396 51.5835C20.2396 51.5665 20.267 51.5432 20.3006 51.5316C20.3342 51.52 20.4087 51.4801 20.4662 51.443C20.5237 51.4058 20.5983 51.3743 20.6318 51.3729C20.6653 51.3715 20.6928 51.3547 20.6928 51.3355C20.6928 51.3163 20.7242 51.3007 20.7625 51.3007C20.8009 51.3007 20.8323 51.285 20.8323 51.2658C20.8323 51.2467 20.8715 51.231 20.9194 51.231C20.9674 51.231 21.0066 51.2186 21.0066 51.2035C21.0066 51.1884 21.1086 51.1453 21.2332 51.1077C21.3578 51.0701 21.4598 51.0276 21.4598 51.0132C21.4598 50.9989 21.5147 50.9871 21.5818 50.9871C21.6489 50.9871 21.7038 50.9714 21.7038 50.9523C21.7038 50.9326 21.8026 50.9174 21.9304 50.9174C22.0583 50.9174 22.157 50.9022 22.157 50.8826C22.157 50.8594 28.7112 50.8478 41.7497 50.8478C54.7882 50.8478 61.3423 50.8594 61.3423 50.8826C61.3423 50.9018 61.4286 50.9174 61.5341 50.9174C61.6395 50.9174 61.7258 50.9331 61.7258 50.9523C61.7258 50.9714 61.7876 50.9871 61.8632 50.9871C61.9388 50.9871 62.008 50.999 62.017 51.0136C62.026 51.0282 62.1367 51.0713 62.2631 51.1094C62.3894 51.1475 62.4928 51.1905 62.4928 51.2049C62.4928 51.2192 62.532 51.231 62.5799 51.231C62.6279 51.231 62.6671 51.2467 62.6671 51.2658C62.6671 51.285 62.6985 51.3007 62.7368 51.3007C62.7752 51.3007 62.8065 51.3163 62.8065 51.3355C62.8065 51.3547 62.8379 51.3703 62.8763 51.3703C62.9146 51.3703 62.946 51.3843 62.946 51.4014C62.946 51.4185 62.9852 51.4423 63.0331 51.4543C63.0811 51.4664 63.1203 51.4916 63.1203 51.5104C63.1203 51.5292 63.1482 51.5445 63.1823 51.5445C63.2165 51.5445 63.267 51.5759 63.2946 51.6142C63.3223 51.6525 63.3728 51.6839 63.4069 51.6839C63.441 51.6839 63.4689 51.6996 63.4689 51.7187C63.4689 51.7379 63.4853 51.7536 63.5054 51.7536C63.5254 51.7536 63.5796 51.7889 63.6257 51.832C63.751 51.949 63.8123 51.9974 63.8351 51.9974C63.8624 51.9974 64.0267 52.1626 64.0267 52.19C64.0267 52.2018 64.0491 52.2339 64.0765 52.2612C64.1161 52.3008 64.2592 52.311 64.7738 52.311C65.1822 52.311 65.4212 52.3238 65.4212 52.3458C65.4212 52.3687 66.1649 52.3807 67.5827 52.3807C69.0004 52.3807 69.7442 52.3927 69.7442 52.4155C69.7442 52.4364 69.8834 52.4503 70.0922 52.4503H70.4403L70.4549 54.3926C70.4694 56.3147 70.4874 56.7704 70.5491 56.7704C70.5666 56.7704 70.5808 56.8252 70.5808 56.8923C70.5808 56.9594 70.5965 57.0142 70.6157 57.0142C70.6349 57.0142 70.6517 57.0417 70.6531 57.0752C70.6545 57.1088 70.6857 57.1832 70.7225 57.2407C70.7592 57.2982 70.8001 57.3687 70.8134 57.3975C70.8266 57.4262 70.866 57.4751 70.9009 57.5061C70.9358 57.5371 70.9644 57.5841 70.9644 57.6106C70.9645 57.6371 71.0115 57.6901 71.0689 57.7284C71.1263 57.7668 71.1734 57.8099 71.1734 57.8242C71.1735 57.8386 71.197 57.8504 71.2258 57.8504C71.2546 57.8504 71.2781 57.8625 71.2781 57.8774C71.2781 57.8923 71.3486 57.9354 71.4347 57.9732C71.5207 58.011 71.5913 58.0522 71.5915 58.0647C71.5917 58.0773 71.6742 58.0988 71.7749 58.1127C72.0097 58.145 80.6982 58.1443 81.0209 58.1119C81.1545 58.0986 81.2953 58.0656 81.3338 58.0387C81.3722 58.0117 81.4316 57.9897 81.4657 57.9897C81.4997 57.9897 81.5276 57.974 81.5276 57.9549C81.5276 57.9357 81.559 57.92 81.5974 57.92C81.6357 57.92 81.6671 57.9044 81.6671 57.8852C81.6671 57.866 81.6984 57.8504 81.7368 57.8504C81.7751 57.8504 81.8065 57.8347 81.8065 57.8155C81.8065 57.7964 81.8219 57.7807 81.8407 57.7807C81.8964 57.7807 82.2946 57.3686 82.2946 57.311C82.2946 57.2819 82.3103 57.2581 82.3295 57.2581C82.3486 57.2581 82.3643 57.2346 82.3643 57.2058C82.3643 57.1771 82.3761 57.1535 82.3905 57.1534C82.4255 57.1531 82.5386 56.9516 82.5386 56.8895C82.5386 56.8623 82.5543 56.84 82.5735 56.84C82.5927 56.84 82.6084 56.8087 82.6084 56.7704C82.6084 56.732 82.624 56.7007 82.6432 56.7007C82.6624 56.7007 82.6781 56.6691 82.6781 56.6305C82.6781 56.592 82.6917 56.5331 82.7083 56.4999C82.7572 56.4018 82.8242 56.2028 82.8429 56.0997C82.8525 56.047 82.8742 56.0039 82.8912 56.0039C82.9082 56.0039 82.9221 55.9334 82.9221 55.8471C82.9221 55.7609 82.9378 55.6904 82.957 55.6904C82.9762 55.6904 82.9918 55.6041 82.9918 55.4987C82.9918 55.3934 83.0075 55.3071 83.0267 55.3071C83.0459 55.3071 83.0616 55.2345 83.0616 55.1457C83.0616 55.0569 83.0762 54.9276 83.0941 54.8583C83.2132 54.396 83.2776 53.0787 83.2937 50.7694C83.3026 49.504 83.3203 48.7574 83.3416 48.7574C83.3629 48.7574 83.3753 48.1905 83.3753 47.2245C83.3753 46.297 83.3625 45.6916 83.3427 45.6916C83.3236 45.6916 83.3024 45.2481 83.2914 44.6203C83.2811 44.0311 83.2649 43.4236 83.2553 43.2703C83.2458 43.117 83.2137 42.4664 83.184 41.8245C83.1543 41.1826 83.1146 40.5312 83.0958 40.3769C83.0769 40.2226 83.0616 39.8659 83.0616 39.5843C83.0616 39.2661 83.0484 39.0722 83.0267 39.0722C83.0047 39.0722 82.9918 38.84 82.9918 38.4451C82.9918 38.0712 82.9784 37.818 82.9587 37.818C82.9397 37.818 82.9184 37.582 82.909 37.2693C82.8894 36.6157 82.8311 35.6892 82.7987 35.5187C82.7702 35.3681 82.7108 34.4115 82.6899 33.768C82.6813 33.5006 82.6598 33.289 82.6414 33.289C82.6221 33.289 82.6084 33.0786 82.6084 32.7838C82.6084 32.4703 82.5951 32.2787 82.5735 32.2787C82.5533 32.2787 82.5386 32.1683 82.5386 32.0174C82.5386 31.8664 82.5533 31.7561 82.5735 31.7561C82.5959 31.7561 82.6084 31.3854 82.6084 30.7138C82.6084 30.0929 82.6216 29.6669 82.6412 29.6599C82.6611 29.6529 82.6783 28.819 82.6848 27.5435C82.6932 25.8829 82.6863 25.4356 82.6519 25.4241C82.6223 25.4142 82.6084 25.3269 82.6084 25.1512C82.6084 25.0022 82.5936 24.8928 82.5735 24.8928C82.5543 24.8928 82.5386 24.8351 82.5386 24.7646C82.5386 24.6942 82.5206 24.5805 82.4985 24.5121C82.4171 24.2596 82.3462 24.0918 82.3207 24.0917C82.3064 24.0916 82.2946 24.0602 82.2946 24.0218C82.2946 23.9835 82.2789 23.9522 82.2597 23.9522C82.2406 23.9522 82.2249 23.9217 82.2249 23.8845C82.2249 23.8473 82.2092 23.8072 82.19 23.7954C82.1708 23.7835 82.1552 23.7501 82.1552 23.7212C82.1552 23.6922 82.1356 23.6466 82.1116 23.6199C82.0003 23.4959 81.9808 23.4626 81.9808 23.3962C81.9808 23.3571 81.9651 23.3251 81.946 23.3251C81.9268 23.3251 81.9111 23.2937 81.9111 23.2554C81.9111 23.2171 81.8954 23.1857 81.8763 23.1857C81.8571 23.1857 81.8414 23.1622 81.8414 23.1335C81.8414 23.1047 81.8281 23.0812 81.8118 23.0812C81.7955 23.0812 81.754 23.0185 81.7194 22.9418C81.6848 22.8652 81.6432 22.8025 81.6269 22.8025C81.6107 22.8025 81.5974 22.7711 81.5974 22.7328C81.5974 22.6945 81.5817 22.6631 81.5625 22.6631C81.5433 22.6631 81.5276 22.6396 81.5276 22.6109C81.5276 22.5821 81.5119 22.5586 81.4928 22.5586C81.4736 22.5586 81.4579 22.5273 81.4579 22.4889C81.4579 22.4506 81.4439 22.4193 81.4268 22.4193C81.4097 22.4193 81.3859 22.3801 81.3739 22.3322C81.3618 22.2843 81.3366 22.2451 81.3178 22.2451C81.299 22.2451 81.2836 22.2137 81.2836 22.1754C81.2836 22.1371 81.2679 22.1057 81.2487 22.1057C81.2296 22.1057 81.2139 22.0822 81.2139 22.0534C81.2139 22.0247 81.1982 22.0012 81.179 22.0012C81.1598 22.0012 81.1441 21.9698 81.1441 21.9315C81.1441 21.8932 81.1285 21.8618 81.1093 21.8618C81.0901 21.8618 81.0744 21.8305 81.0744 21.7922C81.0744 21.7538 81.0626 21.7224 81.0483 21.7223C81.0132 21.722 80.9001 21.5205 80.9001 21.4584C80.9001 21.4312 80.8844 21.4089 80.8652 21.4089C80.8461 21.4089 80.8304 21.3854 80.8304 21.3567C80.8304 21.3279 80.8147 21.3044 80.7955 21.3044C80.7763 21.3044 80.7607 21.2731 80.7607 21.2347C80.7607 21.1964 80.745 21.1651 80.7258 21.1651C80.7066 21.1651 80.6909 21.1337 80.6909 21.0954C80.6909 21.0571 80.6786 21.0257 80.6634 21.0257C80.6483 21.0257 80.5908 20.9395 80.5356 20.8341C80.4804 20.7287 80.4222 20.6425 80.4062 20.6425C80.3902 20.6425 80.3772 20.6202 80.3772 20.593C80.3772 20.5309 80.2641 20.3294 80.229 20.3291C80.2146 20.329 80.2029 20.2976 80.2029 20.2592C80.2029 20.2209 80.1872 20.1896 80.168 20.1896C80.1488 20.1896 80.1331 20.1661 80.1331 20.1373C80.1331 20.1086 80.1174 20.0851 80.0983 20.0851C80.0791 20.0851 80.0634 20.0537 80.0634 20.0154C80.0634 19.9771 80.0477 19.9457 80.0285 19.9457C80.0094 19.9457 79.9937 19.9297 79.9937 19.9101C79.9937 19.8678 79.8134 19.585 79.7758 19.5683C79.7614 19.5619 79.7496 19.5266 79.7496 19.4899C79.7496 19.4531 79.734 19.4231 79.7148 19.4231C79.6956 19.4231 79.6799 19.3996 79.6799 19.3709C79.6799 19.3421 79.6642 19.3186 79.6451 19.3186C79.6259 19.3186 79.6102 19.2872 79.6102 19.2489C79.6102 19.2106 79.5981 19.1792 79.5833 19.1792C79.5684 19.1792 79.5268 19.1244 79.4906 19.0573C79.4545 18.9902 79.4117 18.9354 79.3956 18.9354C79.3794 18.9354 79.3662 18.904 79.3662 18.8657C79.3662 18.8274 79.3529 18.796 79.3368 18.796C79.3206 18.796 79.2779 18.7411 79.2417 18.6741C79.2055 18.607 79.1658 18.5521 79.1533 18.5521C79.1408 18.5521 79.1111 18.5051 79.0873 18.4476C79.0635 18.3901 79.0302 18.3431 79.0133 18.3431C78.9964 18.3431 78.9827 18.3272 78.9827 18.3076C78.9827 18.2622 78.5743 17.8554 78.5288 17.8554C78.51 17.8554 78.4946 17.8397 78.4946 17.8205C78.4946 17.8014 78.4667 17.7857 78.4326 17.7857C78.3985 17.7857 78.3479 17.7543 78.3203 17.716C78.2926 17.6777 78.2421 17.6463 78.208 17.6463C78.1739 17.6463 78.146 17.6324 78.146 17.6153C78.146 17.5982 78.1068 17.5744 78.0588 17.5623C78.0109 17.5503 77.9717 17.5251 77.9717 17.5063C77.9717 17.4875 77.9403 17.4721 77.9019 17.4721C77.8636 17.4721 77.8322 17.4565 77.8322 17.4373C77.8322 17.4181 77.8008 17.4025 77.7625 17.4025C77.7241 17.4025 77.6928 17.3868 77.6928 17.3676C77.6928 17.3485 77.6535 17.3328 77.6056 17.3328C77.5577 17.3328 77.5185 17.3206 77.5185 17.3057C77.5185 17.2909 77.448 17.2478 77.3619 17.2099C77.2758 17.1721 77.2052 17.1294 77.205 17.115C77.2048 17.1007 77.1655 17.0889 77.1175 17.0889C77.0696 17.0889 77.0304 17.0732 77.0304 17.0541C77.0304 17.0349 76.9833 17.0192 76.9258 17.0192C76.8683 17.0192 76.8212 17.0036 76.8212 16.9844C76.8212 16.9652 76.7911 16.9496 76.7544 16.9496C76.7176 16.9496 76.6824 16.9378 76.6759 16.9234C76.66 16.8876 76.4124 16.7754 76.3494 16.7754C76.3213 16.7754 76.2983 16.7597 76.2983 16.7405C76.2983 16.7214 76.2591 16.7057 76.2111 16.7057C76.1632 16.7057 76.124 16.69 76.124 16.6708C76.124 16.6517 76.0769 16.636 76.0194 16.636C75.9619 16.636 75.9148 16.6203 75.9148 16.6012C75.9148 16.582 75.8756 16.5663 75.8276 16.5663H75.7405V16.1327V15.6991L76.2198 15.68C76.4835 15.6695 76.9855 15.652 77.3354 15.6411C77.6943 15.63 77.9717 15.6071 77.9717 15.5887C77.9717 15.5699 78.1725 15.556 78.4423 15.556C78.7328 15.556 78.9129 15.5427 78.9129 15.5212C78.9129 15.5014 79.0151 15.4863 79.1496 15.4863C79.3612 15.4863 79.7052 15.403 79.773 15.3353C79.7857 15.3225 79.8249 15.3121 79.8601 15.3121C79.8952 15.3121 79.924 15.2965 79.924 15.2773C79.924 15.2581 79.948 15.2425 79.9773 15.2425C80.0473 15.2425 80.4469 14.8437 80.4469 14.7738C80.4469 14.7442 80.4626 14.7199 80.4818 14.7199C80.5009 14.7199 80.5166 14.6964 80.5166 14.6676C80.5166 14.6389 80.5323 14.6154 80.5515 14.6154C80.5707 14.6154 80.5863 14.5907 80.5863 14.5606C80.5863 14.5305 80.6099 14.4823 80.6386 14.4536C80.6674 14.4249 80.6909 14.3633 80.6909 14.3168C80.6909 14.2702 80.7066 14.2321 80.7258 14.2321C80.745 14.2321 80.7607 14.1773 80.7607 14.1102C80.7607 14.0431 80.7763 13.9883 80.7955 13.9883C80.8147 13.9883 80.8304 13.903 80.8304 13.7987C80.8304 13.6944 80.8461 13.5995 80.8652 13.5876C80.8862 13.5747 80.9001 13.3383 80.9001 12.9953C80.9001 12.6524 80.8862 12.416 80.8652 12.4031C80.8461 12.3912 80.8304 12.2963 80.8304 12.192C80.8304 12.0877 80.8147 12.0024 80.7955 12.0024C80.7763 12.0024 80.7607 11.9319 80.7607 11.8457C80.7607 11.7594 80.745 11.6889 80.7258 11.6889C80.7066 11.6889 80.6904 11.6458 80.6898 11.5931C80.6892 11.5404 80.6657 11.4668 80.6375 11.4297C80.6094 11.3924 80.5863 11.3337 80.5863 11.299C80.5863 11.2643 80.5707 11.236 80.5515 11.236C80.5323 11.236 80.5166 11.1968 80.5166 11.1489C80.5166 11.101 80.5009 11.0618 80.4818 11.0618C80.4626 11.0618 80.4469 11.0304 80.4469 10.9921C80.4469 10.9538 80.4312 10.9224 80.412 10.9224C80.3929 10.9224 80.3772 10.8982 80.3772 10.8686C80.3772 10.8391 80.338 10.7726 80.29 10.721C80.2421 10.6693 80.2029 10.6141 80.2029 10.5984C80.2029 10.5457 79.65 10.0166 79.5949 10.0166C79.5649 10.0166 79.5405 10.0034 79.5405 9.98726C79.5405 9.97113 79.4856 9.92838 79.4185 9.89225C79.3513 9.85612 79.2964 9.81449 79.2964 9.79968C79.2964 9.78488 79.2651 9.77275 79.2267 9.77275C79.1884 9.77275 79.157 9.75708 79.157 9.73792C79.157 9.71875 79.1178 9.70308 79.0698 9.70308C79.0219 9.70308 78.9827 9.6874 78.9827 9.66824C78.9827 9.64908 78.9589 9.6334 78.9299 9.6334C78.9009 9.6334 78.8499 9.61964 78.8166 9.60281C78.6549 9.52111 78.4855 9.4592 78.4237 9.4592C78.386 9.4592 78.3551 9.44353 78.3551 9.42437C78.3551 9.4052 78.2846 9.38953 78.1983 9.38953C78.112 9.38953 78.0414 9.37385 78.0414 9.35469C78.0414 9.33553 77.963 9.31985 77.8671 9.31985C77.7712 9.31985 77.6928 9.30417 77.6928 9.28501C77.6928 9.26585 77.6153 9.25017 77.5207 9.25017C77.4261 9.25017 77.3065 9.23415 77.255 9.21457C77.0218 9.12597 74.5203 9.02996 74.5203 9.1096C74.5203 9.12942 74.4894 9.14565 74.4518 9.14565C74.3676 9.14565 74.1368 9.25247 74.1368 9.29146C74.1368 9.30706 74.1133 9.31985 74.0845 9.31985C74.0558 9.31985 74.0322 9.33553 74.0322 9.35469C74.0322 9.37385 74.0008 9.38953 73.9625 9.38953C73.9238 9.38953 73.8928 9.41276 73.8928 9.44178C73.8928 9.47053 73.8771 9.49404 73.8579 9.49404C73.8387 9.49404 73.823 9.51756 73.823 9.5463C73.823 9.57504 73.8074 9.59856 73.7882 9.59856C73.769 9.59856 73.7533 9.62208 73.7533 9.65082C73.7533 9.67956 73.7415 9.70318 73.7272 9.70328C73.6921 9.7036 73.579 9.90504 73.579 9.96719C73.579 9.99436 73.5633 10.0166 73.5441 10.0166C73.525 10.0166 73.5093 10.0793 73.5093 10.156C73.5093 10.2326 73.4936 10.2953 73.4744 10.2953C73.4552 10.2953 73.4396 10.3659 73.4396 10.4521C73.4396 10.5383 73.4255 10.6089 73.4084 10.6089C73.3912 10.6089 73.3696 10.6677 73.3605 10.7395C73.3512 10.8114 73.3149 10.9799 73.2797 11.114C73.2222 11.3329 73.2145 11.5461 73.2047 13.1957C73.1978 14.3579 73.1813 15.0334 73.1598 15.0334C73.1411 15.0334 73.1258 14.9629 73.1258 14.8766C73.1258 14.7904 73.1101 14.7199 73.0909 14.7199C73.0718 14.7199 73.0561 14.689 73.0561 14.6514C73.0561 14.6137 73.0304 14.5236 72.9989 14.4511C72.9675 14.3786 72.9265 14.28 72.9077 14.2321C72.889 14.1842 72.8598 14.1178 72.8428 14.0845C72.8259 14.0513 72.812 13.9846 72.812 13.9365C72.812 13.8883 72.7963 13.8489 72.7772 13.8489C72.758 13.8489 72.7423 13.8175 72.7423 13.7792C72.7423 13.7409 72.7266 13.7095 72.7075 13.7095C72.6883 13.7095 72.6726 13.6723 72.6726 13.6267C72.6726 13.5812 72.6491 13.5244 72.6203 13.5005C72.5915 13.4766 72.568 13.4277 72.568 13.3917C72.568 13.3558 72.5523 13.3263 72.5331 13.3263C72.514 13.3263 72.4983 13.2871 72.4983 13.2392C72.4983 13.1913 72.4826 13.1521 72.4634 13.1521C72.4442 13.1521 72.4286 13.1208 72.4286 13.0824C72.4286 13.0441 72.4129 13.0128 72.3937 13.0128C72.3745 13.0128 72.3588 12.9736 72.3588 12.9257C72.3588 12.8778 72.3431 12.8386 72.324 12.8386C72.3048 12.8386 72.2891 12.8083 72.2891 12.7714C72.2891 12.7344 72.2656 12.6807 72.2368 12.6519C72.208 12.6232 72.1845 12.5751 72.1845 12.5449C72.1845 12.5148 72.1688 12.4902 72.1497 12.4902C72.1305 12.4902 72.1148 12.451 72.1148 12.4031C72.1148 12.3552 72.0991 12.316 72.0799 12.316C72.0608 12.316 72.0451 12.2846 72.0451 12.2463C72.0451 12.208 72.0326 12.1766 72.0174 12.1766C72.0021 12.1766 71.9605 12.1061 71.9249 12.0199C71.8894 11.9336 71.8498 11.8631 71.8371 11.8631C71.8244 11.8631 71.7925 11.8082 71.7662 11.7411C71.7398 11.6741 71.7055 11.6192 71.6899 11.6192C71.6743 11.6192 71.6616 11.5813 71.6616 11.535C71.6616 11.4887 71.6498 11.4456 71.6354 11.4392C71.6039 11.4252 71.4557 11.1733 71.4287 11.0879C71.4181 11.0544 71.3956 11.027 71.3786 11.027C71.3617 11.027 71.3478 10.9878 71.3478 10.9399C71.3478 10.892 71.3347 10.8528 71.3187 10.8528C71.3028 10.8528 71.2446 10.7665 71.1894 10.6611C71.1342 10.5558 71.0767 10.4695 71.0616 10.4695C71.0464 10.4695 71.0341 10.4382 71.0341 10.3999C71.0341 10.3615 71.0184 10.3302 70.9992 10.3302C70.98 10.3302 70.9643 10.2988 70.9643 10.2605C70.9643 10.2222 70.9486 10.1908 70.9295 10.1908C70.9103 10.1908 70.8946 10.1673 70.8946 10.1386C70.8946 10.1098 70.8789 10.0863 70.8597 10.0863C70.8406 10.0863 70.8249 10.0647 70.8249 10.0383C70.8249 10.0119 70.8014 9.97081 70.7726 9.94695C70.7438 9.92308 70.7203 9.87762 70.7203 9.84585C70.7203 9.81411 70.6889 9.76554 70.6506 9.73792C70.6122 9.71029 70.5808 9.65197 70.5808 9.60828C70.5808 9.56463 70.5671 9.52888 70.5502 9.52888C70.5334 9.52888 70.5001 9.48185 70.4763 9.42437C70.4525 9.36688 70.4195 9.31985 70.403 9.31985C70.3865 9.31985 70.3632 9.28065 70.3511 9.23275C70.3391 9.18485 70.3153 9.14565 70.2982 9.14565C70.2811 9.14565 70.2671 9.12005 70.2671 9.08876C70.2671 9.05748 70.2397 9.0063 70.2061 8.97505C70.1376 8.91123 70.0847 8.83252 69.999 8.66662C69.9668 8.60433 69.9276 8.55339 69.912 8.55339C69.8964 8.55339 69.8836 8.52204 69.8836 8.48372C69.8836 8.44539 69.8679 8.41404 69.8487 8.41404C69.8296 8.41404 69.8139 8.39052 69.8139 8.36178C69.8139 8.33304 69.8018 8.30952 69.7869 8.30952C69.7721 8.30952 69.7305 8.25465 69.6943 8.18759C69.6581 8.12052 69.6154 8.06565 69.5992 8.06565C69.5831 8.06565 69.5698 8.03774 69.5698 8.00367C69.5698 7.96956 69.5385 7.91908 69.5001 7.89146C69.4618 7.86383 69.4304 7.81335 69.4304 7.77924C69.4304 7.74517 69.4172 7.71726 69.401 7.71726C69.3849 7.71726 69.3421 7.66239 69.3059 7.59532C69.2698 7.52826 69.2281 7.47339 69.2133 7.47339C69.1985 7.47339 69.1864 7.44987 69.1864 7.42113C69.1864 7.39239 69.1707 7.36887 69.1515 7.36887C69.1323 7.36887 69.1166 7.34536 69.1166 7.31661C69.1166 7.28787 69.1009 7.26436 69.0818 7.26436C69.0626 7.26436 69.0469 7.24798 69.0469 7.22798C69.0469 7.20799 69.0077 7.14935 68.9598 7.09772C68.9118 7.04606 68.8726 6.98749 68.8726 6.96756C68.8726 6.94764 68.8412 6.90876 68.8029 6.88113C68.7645 6.8535 68.733 6.81476 68.7328 6.79504C68.7325 6.75853 68.5494 6.50835 68.4207 6.36851C68.3816 6.32608 68.3497 6.28228 68.3497 6.27124C68.3497 6.24873 68.3008 6.18703 68.1841 6.06231C68.1409 6.01622 68.1056 5.96208 68.1056 5.94205C68.1056 5.92201 68.0899 5.90564 68.0708 5.90564C68.0516 5.90564 68.0359 5.88223 68.0359 5.85359C68.0359 5.82495 67.9653 5.72998 67.879 5.6425C67.7927 5.55502 67.7221 5.46873 67.7221 5.45072C67.7221 5.4327 67.6594 5.35337 67.5827 5.27439C67.506 5.19542 67.4432 5.1171 67.4432 5.10041C67.4432 5.08369 67.3334 4.95897 67.1992 4.82323C67.065 4.6875 66.9552 4.56159 66.9552 4.54348C66.9552 4.52536 66.8689 4.42569 66.7634 4.32197C66.658 4.21826 66.5717 4.12384 66.5717 4.11214C66.5717 4.0843 66.4069 3.91983 66.379 3.91983C66.3513 3.91983 66.2579 3.82681 66.2579 3.79922C66.2579 3.77176 66.0226 3.5366 65.9951 3.5366C65.9675 3.5366 65.8744 3.44323 65.8744 3.41557C65.8744 3.38815 65.7101 3.22305 65.6828 3.22305C65.6715 3.22305 65.5766 3.13682 65.472 3.03144C65.3674 2.92605 65.2661 2.83982 65.2469 2.83982C65.2277 2.83982 65.2121 2.82414 65.2121 2.80498C65.2121 2.78582 65.1957 2.77014 65.1756 2.77014C65.1556 2.77014 65.103 2.73489 65.0587 2.69176C64.9244 2.56094 64.7947 2.45659 64.7663 2.45659C64.7515 2.45659 64.7168 2.42524 64.6891 2.38692C64.6615 2.34859 64.6226 2.31724 64.6026 2.31724C64.5827 2.31724 64.5241 2.27805 64.4724 2.23014C64.4207 2.18224 64.3633 2.14305 64.3449 2.14305C64.3265 2.14305 64.3062 2.1313 64.2998 2.11692C64.2934 2.10253 64.2176 2.05247 64.1313 2.00564C64.045 1.95878 63.9537 1.90001 63.9284 1.875C63.903 1.84998 63.8599 1.8295 63.8325 1.8295C63.8051 1.8295 63.7827 1.81382 63.7827 1.79466C63.7827 1.7755 63.7513 1.75982 63.713 1.75982C63.6746 1.75982 63.6432 1.74414 63.6432 1.72498C63.6432 1.70582 63.6119 1.69014 63.5735 1.69014C63.5352 1.69014 63.5038 1.67446 63.5038 1.6553C63.5038 1.63614 63.488 1.62046 63.4688 1.62046C63.4495 1.62046 63.3524 1.58127 63.2531 1.53337C63.1537 1.48546 63.044 1.44627 63.0092 1.44627C62.9744 1.44627 62.946 1.43059 62.946 1.41143C62.946 1.39227 62.8911 1.37659 62.824 1.37659C62.7569 1.37659 62.702 1.36091 62.702 1.34175C62.702 1.32259 62.6558 1.30691 62.5994 1.30691C62.543 1.30691 62.4883 1.29298 62.4777 1.27591C62.4672 1.25887 62.4074 1.23657 62.3449 1.22636C62.1938 1.20163 61.9084 1.13613 61.7756 1.09565C61.7167 1.07771 61.5873 1.06304 61.488 1.06304C61.3887 1.06304 61.3075 1.04736 61.3075 1.0282C61.3075 1.00807 61.1971 0.993363 61.046 0.993363C60.8949 0.993363 60.7845 0.978661 60.7845 0.958524C60.7845 0.938387 60.6743 0.923685 60.5236 0.923685C60.38 0.923685 60.1957 0.908634 60.1139 0.890239C60.0322 0.871879 59.6907 0.832652 59.3552 0.803108C59.0196 0.773565 58.6588 0.740433 58.5533 0.729458C58.4479 0.718484 58.1459 0.702005 57.8822 0.692808C57.6154 0.683541 57.4029 0.661524 57.4029 0.643129C57.4029 0.623793 57.1821 0.610136 56.8695 0.610136C56.5761 0.610136 56.3212 0.595259 56.303 0.577038C56.2848 0.558853 56.0188 0.537358 55.7121 0.529275C54.9885 0.510218 53.7243 0.444128 53.568 0.417197C53.392 0.386818 51.9126 0.3262 50.9272 0.308989C50.4359 0.300384 50.0818 0.28056 50.0818 0.261608C50.0818 0.242481 49.6744 0.222624 49.0969 0.2136C47.7196 0.192035 45.848 0.135248 45.6194 0.108039C45.4549 0.0884592 43.8125 0.0425407 41.8368 0.00233661C41.5301 -0.00393438 41.1065 0.00285968 40.8956 0.0174223ZM49.768 1.89165C50.7555 1.91367 51.634 1.94185 51.7203 1.95436C51.8862 1.97836 53.5486 2.03477 54.8492 2.06055C55.288 2.06922 55.6249 2.08985 55.6249 2.10803C55.6249 2.12587 55.9154 2.14775 56.2786 2.15726C57.2296 2.18214 58.3369 2.25882 59.0955 2.35232C59.2499 2.37134 59.4892 2.38692 59.6272 2.38692C59.7712 2.38692 59.8781 2.40176 59.8781 2.42176C59.8781 2.44266 60.0176 2.45659 60.2267 2.45659C60.4185 2.45659 60.5754 2.47109 60.5754 2.48879C60.5754 2.50648 60.6969 2.52878 60.8455 2.53833C61.167 2.55895 61.5845 2.61515 61.7781 2.66378C61.8548 2.68305 61.9764 2.69918 62.0483 2.69963C62.1202 2.70008 62.179 2.71614 62.179 2.73531C62.179 2.75447 62.2653 2.77014 62.3708 2.77014C62.4762 2.77014 62.5625 2.78582 62.5625 2.80498C62.5625 2.82414 62.6174 2.83982 62.6845 2.83982C62.7516 2.83982 62.8065 2.8555 62.8065 2.87466C62.8065 2.89382 62.8536 2.9095 62.9111 2.9095C62.9687 2.9095 63.0157 2.92518 63.0157 2.94434C63.0157 2.9635 63.031 2.97918 63.0496 2.97918C63.1013 2.97918 63.4848 3.16417 63.498 3.19553C63.5044 3.21065 63.5397 3.22305 63.5764 3.22305C63.6132 3.22305 63.6432 3.23873 63.6432 3.25789C63.6432 3.27705 63.6593 3.29273 63.6788 3.29273C63.7212 3.29273 64.0042 3.47288 64.0209 3.51047C64.0273 3.52486 64.0548 3.5366 64.0819 3.5366C64.1091 3.5366 64.1313 3.55228 64.1313 3.57144C64.1313 3.5906 64.1548 3.60628 64.1836 3.60628C64.2124 3.60628 64.2359 3.62195 64.2359 3.64112C64.2359 3.66028 64.2594 3.67595 64.2882 3.67595C64.317 3.67595 64.3405 3.69947 64.3405 3.72821C64.3405 3.75695 64.3528 3.78047 64.3678 3.78047C64.3988 3.78047 64.5656 3.92157 64.8519 4.18983C64.9593 4.29044 65.0607 4.37273 65.0773 4.37273C65.0939 4.37273 65.1075 4.38897 65.1075 4.40882C65.1075 4.44429 65.1525 4.49916 65.3776 4.73798C65.4399 4.80407 65.4909 4.86723 65.4909 4.87831C65.4909 4.88939 65.5263 4.935 65.5694 4.97962C65.6125 5.02422 65.6782 5.10288 65.7154 5.15441C65.7525 5.20597 65.8114 5.28088 65.8461 5.32091C65.8808 5.36097 65.9093 5.40581 65.9093 5.42054C65.9093 5.43532 65.9564 5.4944 66.0139 5.55189C66.0714 5.60937 66.1185 5.67766 66.1185 5.70365C66.1185 5.72964 66.1498 5.7735 66.1882 5.80112C66.2265 5.82875 66.2579 5.87923 66.2579 5.91334C66.2579 5.94741 66.2711 5.97532 66.2873 5.97532C66.3035 5.97532 66.3462 6.03019 66.3824 6.09725C66.4185 6.16432 66.4602 6.21919 66.475 6.21919C66.4898 6.21919 66.502 6.24271 66.502 6.27145C66.502 6.30019 66.5176 6.32371 66.5368 6.32371C66.556 6.32371 66.5717 6.35374 66.5717 6.39049C66.5717 6.42721 66.5835 6.46247 66.5978 6.46888C66.6354 6.48557 66.8157 6.76842 66.8157 6.81072C66.8157 6.83026 66.8314 6.84629 66.8506 6.84629C66.8698 6.84629 66.8854 6.86981 66.8854 6.89855C66.8854 6.92729 66.9011 6.95081 66.9203 6.95081C66.9395 6.95081 66.9552 6.98216 66.9552 7.02048C66.9552 7.05881 66.9683 7.09016 66.9844 7.09016C67.0005 7.09016 67.0436 7.1527 67.0803 7.22913C67.1169 7.30554 67.1587 7.36825 67.1731 7.36849C67.1874 7.3687 67.1992 7.39239 67.1992 7.42113C67.1992 7.44987 67.2149 7.47339 67.2341 7.47339C67.2532 7.47339 67.2689 7.50474 67.2689 7.54307C67.2689 7.58139 67.2846 7.61274 67.3038 7.61274C67.323 7.61274 67.3387 7.64278 67.3387 7.67953C67.3387 7.71625 67.352 7.75151 67.3683 7.75792C67.4144 7.77596 67.5827 8.05798 67.5827 8.11721C67.5827 8.14634 67.5984 8.17017 67.6176 8.17017C67.6367 8.17017 67.6524 8.19434 67.6524 8.22389C67.6524 8.25343 67.6815 8.30883 67.7171 8.34697C67.7527 8.38512 67.8115 8.47835 67.8478 8.55416C67.8841 8.62993 67.9257 8.69212 67.94 8.69237C67.9544 8.69258 67.9662 8.7241 67.9662 8.76243C67.9662 8.80075 67.9819 8.8321 68.001 8.8321C68.0202 8.8321 68.0359 8.85562 68.0359 8.88436C68.0359 8.91311 68.0516 8.93662 68.0708 8.93662C68.0899 8.93662 68.1056 8.96798 68.1056 9.0063C68.1056 9.04462 68.121 9.07598 68.1398 9.07598C68.1586 9.07598 68.1839 9.11517 68.1959 9.16307C68.2079 9.21098 68.2318 9.25017 68.2488 9.25017C68.266 9.25017 68.2799 9.28153 68.2799 9.31985C68.2799 9.35817 68.2956 9.38953 68.3148 9.38953C68.334 9.38953 68.3497 9.41304 68.3497 9.44178C68.3497 9.47053 68.3653 9.49404 68.3845 9.49404C68.4037 9.49404 68.4194 9.5254 68.4194 9.56372C68.4194 9.60204 68.4351 9.6334 68.4542 9.6334C68.4734 9.6334 68.4891 9.66475 68.4891 9.70308C68.4891 9.7414 68.5015 9.77275 68.5166 9.77275C68.5317 9.77275 68.5893 9.85898 68.6444 9.96437C68.6996 10.0698 68.7578 10.156 68.7738 10.156C68.7898 10.156 68.8029 10.1775 68.8029 10.2039C68.8029 10.261 68.9791 10.5865 69.019 10.6031C69.0344 10.6095 69.0469 10.6447 69.0469 10.6815C69.0469 10.7182 69.0626 10.7482 69.0818 10.7482C69.1009 10.7482 69.1166 10.7718 69.1166 10.8005C69.1166 10.8292 69.1323 10.8528 69.1515 10.8528C69.1707 10.8528 69.1864 10.875 69.1864 10.9022C69.1864 10.9643 69.2995 11.1658 69.3345 11.1661C69.3489 11.1662 69.3607 11.1977 69.3607 11.236C69.3607 11.2743 69.3764 11.3057 69.3955 11.3057C69.4147 11.3057 69.4304 11.337 69.4304 11.3753C69.4304 11.4137 69.4461 11.445 69.4653 11.445C69.4844 11.445 69.5001 11.4685 69.5001 11.4973C69.5001 11.526 69.5158 11.5495 69.535 11.5495C69.5542 11.5495 69.5698 11.5809 69.5698 11.6192C69.5698 11.6575 69.5852 11.6889 69.604 11.6889C69.6228 11.6889 69.6481 11.7281 69.6601 11.776C69.6721 11.8239 69.696 11.8631 69.7131 11.8631C69.7302 11.8631 69.7442 11.8944 69.7442 11.9328C69.7442 11.9711 69.7598 12.0024 69.779 12.0024C69.7982 12.0024 69.8139 12.0338 69.8139 12.0721C69.8139 12.1104 69.8296 12.1418 69.8487 12.1418C69.8679 12.1418 69.8836 12.1653 69.8836 12.1941C69.8836 12.2228 69.8993 12.2463 69.9185 12.2463C69.9376 12.2463 69.9533 12.2777 69.9533 12.316C69.9533 12.3543 69.9687 12.3857 69.9875 12.3857C70.0063 12.3857 70.0316 12.4249 70.0436 12.4728C70.0556 12.5207 70.0795 12.5599 70.0965 12.5599C70.1137 12.5599 70.1276 12.5912 70.1276 12.6295C70.1276 12.6679 70.1433 12.6992 70.1625 12.6992C70.1817 12.6992 70.1974 12.7306 70.1974 12.7689C70.1974 12.8072 70.2131 12.8386 70.2322 12.8386C70.2514 12.8386 70.2671 12.8621 70.2671 12.8908C70.2671 12.9196 70.2828 12.9431 70.302 12.9431C70.3211 12.9431 70.3368 12.9744 70.3368 13.0128C70.3368 13.0511 70.3522 13.0824 70.371 13.0824C70.3898 13.0824 70.415 13.1216 70.4271 13.1695C70.4391 13.2174 70.4629 13.2566 70.48 13.2566C70.4971 13.2566 70.5111 13.288 70.5111 13.3263C70.5111 13.3646 70.5268 13.396 70.546 13.396C70.5652 13.396 70.5808 13.4273 70.5808 13.4657C70.5808 13.504 70.5927 13.5353 70.6072 13.5353C70.6217 13.5353 70.6553 13.5863 70.682 13.6486C70.7087 13.7109 70.7525 13.7875 70.7796 13.8189C70.8091 13.8532 70.8299 13.9593 70.8317 14.0846C70.8352 14.3364 70.7565 14.4732 70.607 14.4749C70.5543 14.4755 70.5111 14.4917 70.5111 14.5108C70.5111 14.5311 70.3949 14.5457 70.2322 14.5457C70.0695 14.5457 69.9533 14.5311 69.9533 14.5108C69.9533 14.4883 69.5175 14.476 68.7157 14.476C67.9896 14.476 67.4781 14.4628 67.4781 14.4441C67.4781 14.4256 66.8591 14.4037 66.0052 14.3921C65.1951 14.381 64.2655 14.3643 63.9396 14.355C63.6136 14.3456 62.3429 14.3137 61.1157 14.284C59.8886 14.2544 58.5865 14.2228 58.2221 14.2138C57.8578 14.2049 56.795 14.1886 55.8602 14.1776C54.9175 14.1666 54.1607 14.1441 54.1607 14.127C54.1607 14.1099 53.3596 14.0874 52.3566 14.0763C48.8736 14.0376 44.4784 13.9476 42.771 13.88C41.9077 13.8458 41.4762 13.8458 40.6793 13.8799C39.1722 13.9445 34.6779 14.037 31.1428 14.0763C30.0683 14.0882 29.3387 14.1094 29.3387 14.1287C29.3387 14.148 28.6941 14.1665 27.7437 14.1745C26.0223 14.189 23.8454 14.2369 19.5772 14.3544C19.2417 14.3637 18.2965 14.3806 17.4768 14.3919C16.6209 14.4038 15.9864 14.4261 15.9864 14.4443C15.9864 14.4627 15.4682 14.476 14.7488 14.476C13.947 14.476 13.5112 14.4883 13.5112 14.5108C13.5112 14.531 13.4008 14.5457 13.2497 14.5457C13.0987 14.5457 12.9882 14.531 12.9882 14.5108C12.9882 14.4917 12.9492 14.476 12.9015 14.476C12.796 14.476 12.6745 14.3786 12.6745 14.2941C12.6745 14.26 12.6588 14.2321 12.6396 14.2321C12.6204 14.2321 12.6048 14.1851 12.6048 14.1276C12.6048 14.0701 12.6204 14.0231 12.6396 14.0231C12.6588 14.0231 12.6745 13.985 12.6745 13.9385C12.6745 13.8579 12.9054 13.4262 12.9615 13.4018C12.9762 13.3954 12.9882 13.3601 12.9882 13.3234C12.9882 13.2867 13.0039 13.2566 13.0231 13.2566C13.0423 13.2566 13.058 13.2174 13.058 13.1695C13.058 13.1216 13.0711 13.0824 13.0872 13.0824C13.1033 13.0824 13.1464 13.0199 13.1831 12.9435C13.2197 12.8671 13.2615 12.8044 13.2759 12.8041C13.2903 12.8039 13.302 12.7802 13.302 12.7515C13.302 12.7227 13.3177 12.6992 13.3369 12.6992C13.356 12.6992 13.3717 12.6679 13.3717 12.6295C13.3717 12.5912 13.3874 12.5599 13.4066 12.5599C13.4258 12.5599 13.4415 12.5376 13.4415 12.5104C13.4415 12.4483 13.5545 12.2468 13.5896 12.2465C13.604 12.2464 13.6158 12.215 13.6158 12.1766C13.6158 12.1383 13.6315 12.107 13.6506 12.107C13.6698 12.107 13.6855 12.0834 13.6855 12.0547C13.6855 12.026 13.7012 12.0024 13.7204 12.0024C13.7395 12.0024 13.7552 11.9711 13.7552 11.9328C13.7552 11.8944 13.7709 11.8631 13.7901 11.8631C13.8092 11.8631 13.8249 11.8408 13.8249 11.8136C13.8249 11.7515 13.938 11.5501 13.9731 11.5497C13.9875 11.5496 13.9993 11.5182 13.9993 11.4799C13.9993 11.4415 14.0149 11.4102 14.0341 11.4102C14.0533 11.4102 14.069 11.3867 14.069 11.3579C14.069 11.3292 14.0847 11.3057 14.1038 11.3057C14.123 11.3057 14.1387 11.2743 14.1387 11.236C14.1387 11.1977 14.1544 11.1663 14.1736 11.1663C14.1927 11.1663 14.2084 11.1369 14.2084 11.1009C14.2084 11.0649 14.232 11.016 14.2607 10.9921C14.2895 10.9682 14.313 10.9271 14.313 10.9008C14.313 10.8744 14.3287 10.8528 14.3479 10.8528C14.367 10.8528 14.3827 10.8214 14.3827 10.7831C14.3827 10.7448 14.3984 10.7134 14.4176 10.7134C14.4368 10.7134 14.4525 10.6899 14.4525 10.6611C14.4525 10.6324 14.4681 10.6089 14.4873 10.6089C14.5065 10.6089 14.5222 10.5775 14.5222 10.5392C14.5222 10.5009 14.5344 10.4695 14.5492 10.4695C14.5641 10.4695 14.6072 10.3991 14.6451 10.3131C14.683 10.2271 14.7257 10.1565 14.7401 10.1563C14.7545 10.1561 14.7662 10.1246 14.7662 10.0863C14.7662 10.048 14.7819 10.0166 14.8011 10.0166C14.8203 10.0166 14.8359 9.99311 14.8359 9.96437C14.8359 9.93563 14.8516 9.91211 14.8708 9.91211C14.89 9.91211 14.9057 9.88075 14.9057 9.84243C14.9057 9.80411 14.918 9.77275 14.9332 9.77275C14.9483 9.77275 15.0058 9.68653 15.061 9.58114C15.1162 9.47575 15.1744 9.38953 15.1904 9.38953C15.2064 9.38953 15.2194 9.36657 15.2194 9.33849C15.2194 9.27738 15.3919 8.95895 15.4339 8.94244C15.4502 8.93603 15.4635 8.90861 15.4635 8.88147C15.4635 8.8543 15.4792 8.8321 15.4983 8.8321C15.5175 8.8321 15.5332 8.80075 15.5332 8.76243C15.5332 8.7241 15.5489 8.69275 15.5681 8.69275C15.5872 8.69275 15.6029 8.66139 15.6029 8.62307C15.6029 8.58475 15.6186 8.55339 15.6378 8.55339C15.657 8.55339 15.6726 8.53228 15.6726 8.50647C15.6726 8.48065 15.7044 8.42289 15.7433 8.37812C15.7822 8.33332 15.8231 8.26036 15.8343 8.21601C15.8454 8.17163 15.8685 8.13533 15.8856 8.13533C15.9027 8.13533 15.9167 8.10397 15.9167 8.06565C15.9167 8.02733 15.9284 7.9959 15.9428 7.99587C15.9572 7.9958 16.0155 7.90957 16.0723 7.80425C16.1292 7.6989 16.188 7.61274 16.2031 7.61274C16.2181 7.61274 16.2304 7.58139 16.2304 7.54307C16.2304 7.50474 16.2432 7.47339 16.2588 7.47339C16.2744 7.47339 16.3087 7.41852 16.335 7.35145C16.3613 7.28439 16.3931 7.22952 16.4057 7.22952C16.4182 7.22952 16.4584 7.16698 16.495 7.09054C16.5317 7.01414 16.5734 6.95143 16.5878 6.95119C16.6022 6.95098 16.6139 6.92729 16.6139 6.89855C16.6139 6.86981 16.6296 6.84629 16.6488 6.84629C16.668 6.84629 16.6837 6.81493 16.6837 6.77661C16.6837 6.73829 16.6993 6.70693 16.7185 6.70693C16.7377 6.70693 16.7534 6.69195 16.7534 6.67363C16.7534 6.64161 16.8889 6.42091 16.9621 6.33388C16.9815 6.31075 16.9974 6.27545 16.9974 6.25549C16.9974 6.23553 17.0131 6.21919 17.0323 6.21919C17.0514 6.21919 17.0671 6.18784 17.0671 6.14951C17.0671 6.11119 17.0794 6.07983 17.0945 6.07983C17.1095 6.07983 17.1515 6.0289 17.1879 5.96661C17.2242 5.90432 17.2825 5.82802 17.3174 5.79705C17.3523 5.76604 17.3809 5.71511 17.3809 5.68382C17.3809 5.65254 17.3966 5.62693 17.4158 5.62693C17.4349 5.62693 17.4506 5.61059 17.4506 5.59063C17.4506 5.55265 17.4855 5.50531 17.6162 5.36553C17.6593 5.31944 17.6947 5.2653 17.6947 5.24527C17.6947 5.22524 17.7077 5.20886 17.7236 5.20886C17.7396 5.20886 17.7749 5.16636 17.8021 5.11442C17.8293 5.06244 17.9263 4.94095 18.0176 4.84441C18.3185 4.52648 18.3919 4.4446 18.3919 4.42718C18.3919 4.39451 18.8825 3.91983 18.9162 3.91983C18.9349 3.91983 19.0197 3.84928 19.1048 3.76305C19.1898 3.67683 19.2839 3.60628 19.3137 3.60628C19.3436 3.60628 19.3681 3.5906 19.3681 3.57144C19.3681 3.55228 19.3844 3.5366 19.4044 3.5366C19.4244 3.5366 19.4597 3.52061 19.4828 3.50106C19.6827 3.33248 19.7421 3.2928 19.7951 3.29276C19.8287 3.29276 19.8561 3.27705 19.8561 3.25789C19.8561 3.23873 19.8875 3.22305 19.9258 3.22305C19.9642 3.22305 19.9956 3.20737 19.9956 3.18821C19.9956 3.16905 20.0191 3.15337 20.0479 3.15337C20.0766 3.15337 20.1002 3.13769 20.1002 3.11853C20.1002 3.09937 20.1246 3.08369 20.1545 3.08369C20.1843 3.08369 20.279 3.0445 20.3649 2.9966C20.4507 2.94869 20.5596 2.9095 20.6069 2.9095C20.6542 2.9095 20.6928 2.89382 20.6928 2.87466C20.6928 2.8555 20.7477 2.83982 20.8148 2.83982C20.882 2.83982 20.9369 2.82414 20.9369 2.80498C20.9369 2.78582 21.0231 2.77014 21.1286 2.77014C21.2341 2.77014 21.3203 2.75447 21.3203 2.73531C21.3203 2.71614 21.3792 2.70008 21.4511 2.69963C21.523 2.69918 21.6446 2.68242 21.7213 2.66235C21.9 2.61567 22.309 2.56146 22.6538 2.53874C22.8024 2.52895 22.924 2.50648 22.924 2.48879C22.924 2.47109 23.0809 2.45659 23.2726 2.45659C23.4644 2.45659 23.6213 2.44238 23.6213 2.42503C23.6213 2.40765 23.7742 2.38594 23.9612 2.37674C24.4646 2.35204 25.2448 2.28689 25.5105 2.24739C25.6388 2.22833 25.9242 2.21272 26.1447 2.21272C26.3743 2.21272 26.5548 2.19785 26.5671 2.17788C26.5802 2.1567 26.8406 2.14305 27.2316 2.14305C27.6207 2.14305 27.8745 2.12981 27.8745 2.10949C27.8745 2.08943 28.187 2.06943 28.6502 2.05982C29.5787 2.04052 31.2149 1.98603 32.3194 1.93757C32.7604 1.91823 33.537 1.89977 34.0451 1.89653C34.5532 1.89329 35.1337 1.87939 35.335 1.86566C35.9156 1.82608 47.7831 1.84744 49.768 1.89165ZM43.4776 19.4588C43.6489 19.4768 44.0911 19.4918 44.4602 19.4922C44.884 19.4925 45.1313 19.5056 45.1313 19.5276C45.1313 19.5498 45.3986 19.5625 45.8634 19.5625C46.3065 19.5625 46.5956 19.5756 46.5956 19.5958C46.5956 19.6152 46.8615 19.6362 47.2318 19.646C48.1302 19.6698 49.5881 19.7697 50.0912 19.8421C50.2209 19.8608 50.468 19.876 50.6402 19.876C50.8258 19.876 50.9533 19.8902 50.9533 19.9109C50.9533 19.9321 51.116 19.9457 51.3717 19.9457C51.6075 19.9457 51.79 19.9599 51.79 19.9782C51.79 19.9961 51.943 20.0188 52.13 20.0286C52.5766 20.052 53.0814 20.1029 53.3414 20.1507C53.4565 20.1719 53.6163 20.1893 53.6967 20.1894C53.7771 20.1895 53.8525 20.2052 53.8644 20.2244C53.8762 20.2436 54.0026 20.2592 54.1453 20.2592C54.295 20.2592 54.4047 20.274 54.4047 20.2941C54.4047 20.3142 54.5151 20.3289 54.6662 20.3289C54.8172 20.3289 54.9277 20.3436 54.9277 20.3638C54.9277 20.3829 55.0089 20.3986 55.1082 20.3986C55.2075 20.3986 55.3369 20.4134 55.3958 20.4314C55.5283 20.472 55.869 20.5368 56.0781 20.5612C56.1644 20.5713 56.2499 20.5937 56.2681 20.611C56.2863 20.6283 56.3765 20.6425 56.4686 20.6425C56.5606 20.6425 56.6359 20.6582 56.6359 20.6773C56.6359 20.6965 56.7065 20.7122 56.7928 20.7122C56.8791 20.7122 56.9497 20.7262 56.9497 20.7433C56.9497 20.7605 57.0085 20.7827 57.0804 20.7928C57.2895 20.8219 57.484 20.8709 57.5662 20.9151C57.6081 20.9376 57.6747 20.956 57.7143 20.956C57.7539 20.956 57.7864 20.9717 57.7864 20.9909C57.7864 21.01 57.8334 21.0257 57.891 21.0257C57.9485 21.0257 57.9955 21.0414 57.9955 21.0605C57.9955 21.0797 58.0119 21.0954 58.032 21.0954C58.0793 21.0954 58.2396 21.2555 58.2396 21.3028C58.2396 21.3229 58.2535 21.3393 58.2704 21.3393C58.2874 21.3393 58.3266 21.4167 58.3576 21.5113C58.4087 21.6674 58.4139 22.3478 58.4139 28.8623V36.0412H41.7497H25.0855V28.8142C25.0855 24.0338 25.0973 21.58 25.1203 21.5657C25.1395 21.5539 25.1552 21.5038 25.1552 21.4545C25.1552 21.3204 25.4654 21.0257 25.6065 21.0257C25.6651 21.0257 25.713 21.01 25.713 20.9909C25.713 20.9717 25.7454 20.956 25.785 20.956C25.8246 20.956 25.8913 20.9376 25.9332 20.9151C26.0153 20.8709 26.2099 20.8219 26.419 20.7928C26.4909 20.7827 26.5497 20.7605 26.5497 20.7433C26.5497 20.7262 26.6203 20.7122 26.7066 20.7122C26.7929 20.7122 26.8635 20.698 26.8635 20.6807C26.8635 20.6634 26.938 20.6407 27.0291 20.6303C27.2885 20.6007 27.9518 20.4779 28.1035 20.4314C28.1624 20.4134 28.2919 20.3986 28.3912 20.3986C28.4904 20.3986 28.5717 20.3829 28.5717 20.3638C28.5717 20.3436 28.6821 20.3289 28.8332 20.3289C28.9842 20.3289 29.0947 20.3142 29.0947 20.2941C29.0947 20.274 29.2044 20.2592 29.3541 20.2592C29.4968 20.2592 29.6232 20.2436 29.635 20.2244C29.6469 20.2052 29.7302 20.1886 29.8201 20.1875C29.91 20.1864 30.0621 20.1704 30.158 20.1522C30.408 20.1044 30.9743 20.0459 31.3694 20.027C31.5564 20.0181 31.7093 19.9961 31.7093 19.9782C31.7093 19.96 31.8852 19.9457 32.1102 19.9457C32.3543 19.9457 32.5112 19.9321 32.5112 19.9109C32.5112 19.8902 32.6388 19.876 32.8243 19.876C32.9965 19.876 33.2436 19.8609 33.3733 19.8423C33.8671 19.7718 35.3342 19.6719 36.2501 19.6464C36.6086 19.6364 36.869 19.6151 36.869 19.5958C36.869 19.5756 37.1648 19.5625 37.6185 19.5625C38.0307 19.5625 38.368 19.549 38.368 19.5326C38.368 19.5161 38.7799 19.4908 39.2832 19.4763C39.7865 19.4619 40.4101 19.438 40.669 19.4233C41.2415 19.3908 43.048 19.4136 43.4776 19.4588ZM17.3809 23.3198C18.8071 23.3462 19.1929 23.3766 19.2228 23.4649C19.2292 23.4838 19.2723 23.4993 19.3187 23.4993C19.365 23.4993 19.4029 23.5149 19.4029 23.5341C19.4029 23.5533 19.4271 23.5689 19.4566 23.5689C19.5273 23.5689 19.7864 23.8268 19.7864 23.8972C19.7864 23.9274 19.8021 23.9522 19.8213 23.9522C19.8404 23.9522 19.8561 24.0227 19.8561 24.1089C19.8561 24.1952 19.8718 24.2657 19.891 24.2657C19.9107 24.2657 19.9258 24.3644 19.9258 24.4922C19.9258 24.6199 19.941 24.7186 19.9607 24.7186C19.9799 24.7186 19.9956 24.7692 19.9956 24.831C19.9956 24.9359 20.0594 25.3072 20.1366 25.651C20.1549 25.7328 20.1699 25.8699 20.1699 25.9559C20.1699 26.0418 20.1856 26.1122 20.2048 26.1122C20.2247 26.1122 20.2396 26.2167 20.2396 26.356C20.2396 26.4954 20.2546 26.5999 20.2745 26.5999C20.2941 26.5999 20.3093 26.698 20.3093 26.8243C20.3093 26.9478 20.325 27.0584 20.3442 27.0702C20.3634 27.0821 20.3791 27.1778 20.3791 27.2829C20.3791 27.4394 20.3635 27.4896 20.2935 27.5596C20.2464 27.6066 20.1846 27.6451 20.1561 27.6451C20.1276 27.6451 20.0946 27.6608 20.0827 27.6799C20.0685 27.7029 18.0204 27.7148 14.0515 27.7148C10.0827 27.7148 8.03458 27.7029 8.02036 27.6799C8.0085 27.6608 7.96053 27.6451 7.91371 27.6451C7.86689 27.6451 7.82861 27.6294 7.82861 27.6102C7.82861 27.5911 7.81083 27.5754 7.78908 27.5754C7.73891 27.5754 7.58468 27.398 7.58461 27.3402C7.58461 27.3163 7.56889 27.2967 7.54971 27.2967C7.52702 27.2967 7.51485 26.7683 7.51485 25.7812C7.51485 24.7941 7.52702 24.2657 7.54971 24.2657C7.56889 24.2657 7.58458 24.2108 7.58458 24.1438C7.58458 24.0767 7.60027 24.0218 7.61944 24.0218C7.63861 24.0218 7.6543 23.9976 7.6543 23.9681C7.6543 23.9385 7.69352 23.872 7.74146 23.8204C7.78939 23.7687 7.82861 23.7134 7.82861 23.6975C7.82861 23.649 7.9248 23.5689 7.98302 23.5689C8.01314 23.5689 8.03779 23.5557 8.03779 23.5396C8.03779 23.5056 8.20931 23.4197 8.38889 23.3638C8.47259 23.3377 9.07247 23.3242 10.2192 23.3225C11.1573 23.3211 11.9955 23.3069 12.0818 23.291C12.2497 23.2601 14.9524 23.2748 17.3809 23.3198ZM73.2653 23.3187C75.013 23.3451 75.3184 23.3662 75.3506 23.4626C75.3573 23.4827 75.385 23.4993 75.4122 23.4993C75.4394 23.4993 75.4616 23.5149 75.4616 23.5341C75.4616 23.5533 75.4851 23.5689 75.5139 23.5689C75.5426 23.5689 75.5662 23.5846 75.5662 23.6038C75.5662 23.6229 75.5897 23.6386 75.6185 23.6386C75.6475 23.6386 75.6708 23.6696 75.6708 23.7083C75.6708 23.7466 75.6864 23.778 75.7056 23.778C75.7248 23.778 75.7405 23.8015 75.7405 23.8302C75.7405 23.859 75.7533 23.8825 75.7689 23.8825C75.8079 23.8825 75.9148 24.1131 75.9148 24.1972C75.9148 24.2349 75.9305 24.2657 75.9496 24.2657C75.9723 24.2657 75.9845 24.7883 75.9845 25.7638C75.9845 26.7393 75.9723 27.2619 75.9496 27.2619C75.9305 27.2619 75.9148 27.2899 75.9148 27.3243C75.9148 27.4045 75.654 27.6451 75.567 27.6451C75.5305 27.6451 75.4909 27.6608 75.479 27.6799C75.4648 27.7029 73.4101 27.7148 69.4283 27.7148C65.4322 27.7148 63.3992 27.703 63.3992 27.6799C63.3992 27.6608 63.375 27.6451 63.3453 27.6451C63.279 27.6451 63.1364 27.5067 63.1068 27.4137C63.0949 27.3759 63.1015 27.2675 63.1217 27.1728C63.167 26.96 63.2227 26.5785 63.2474 26.3125C63.2576 26.2023 63.2803 26.1122 63.2977 26.1122C63.3152 26.1122 63.3295 26.0034 63.3295 25.8704C63.3295 25.7373 63.3433 25.62 63.3601 25.6096C63.377 25.5992 63.3992 25.5003 63.4096 25.3898C63.4396 25.0708 63.5067 24.6738 63.5415 24.6087C63.5591 24.5759 63.5735 24.4696 63.5735 24.3725C63.5735 24.2755 63.5892 24.196 63.6084 24.196C63.6276 24.196 63.6432 24.1412 63.6432 24.0741C63.6432 24.007 63.6589 23.9522 63.6781 23.9522C63.6973 23.9522 63.713 23.9208 63.713 23.8825C63.713 23.8442 63.7287 23.8128 63.7478 23.8128C63.767 23.8128 63.7827 23.7919 63.7827 23.7664C63.7827 23.7409 63.8219 23.6991 63.8698 23.6735C63.9178 23.6478 63.957 23.6138 63.957 23.5979C63.957 23.582 63.9884 23.5689 64.0267 23.5689C64.0651 23.5689 64.0965 23.5533 64.0965 23.5341C64.0965 23.5149 64.1247 23.4993 64.1592 23.4993C64.1937 23.4993 64.24 23.4812 64.2621 23.4592C64.3487 23.3726 64.6951 23.3492 66.1941 23.3288C67.0505 23.3172 67.7638 23.2951 67.7791 23.2798C67.8067 23.2522 69.8177 23.2664 73.2653 23.3187ZM20.2396 30.6064C20.2396 30.6639 20.2553 30.7109 20.2745 30.7109C20.2948 30.7109 20.3093 30.827 20.3093 30.9896C20.3093 31.1522 20.2948 31.2683 20.2745 31.2683C20.2553 31.2683 20.2396 31.2997 20.2396 31.338C20.2396 31.3763 20.2239 31.4077 20.2048 31.4077C20.1856 31.4077 20.1699 31.4245 20.1699 31.445C20.1699 31.4932 20.0812 31.5819 20.0329 31.5819C20.0124 31.5819 19.9956 31.5976 19.9956 31.6167C19.9956 31.6359 19.9642 31.6516 19.9258 31.6516C19.8875 31.6516 19.8561 31.6644 19.8561 31.68C19.8561 31.6957 19.7659 31.7373 19.6557 31.7725C19.4675 31.8326 19.2795 31.8363 16.5816 31.833C14.7929 31.8309 13.5359 31.8149 13.2522 31.7907C12.645 31.7389 11.8709 31.6859 11.4107 31.6646C11.2046 31.655 11.0359 31.6325 11.0359 31.6146C11.0359 31.5966 10.9026 31.5819 10.7396 31.5819C10.5653 31.5819 10.4433 31.5675 10.4433 31.547C10.4433 31.5279 10.3699 31.5122 10.2802 31.5122C10.1905 31.5122 10.0689 31.497 10.01 31.4785C9.9511 31.46 9.80879 31.4195 9.69375 31.3885C9.5787 31.3575 9.45735 31.3178 9.42405 31.3003C9.39076 31.2827 9.33191 31.2683 9.29332 31.2683C9.25469 31.2683 9.22311 31.2526 9.22311 31.2335C9.22311 31.2143 9.19417 31.1986 9.15882 31.1986C9.07955 31.1986 8.73503 30.8745 8.73503 30.8C8.73503 30.7701 8.71935 30.7457 8.70017 30.7457C8.65081 30.7457 8.65684 30.613 8.70889 30.554C8.74619 30.5117 9.57978 30.5043 14.496 30.5032L20.2396 30.5019V30.6064ZM74.7494 30.5517C74.8359 30.6381 74.7942 30.8013 74.6543 30.924C74.6189 30.955 74.59 30.9914 74.59 31.0049C74.59 31.0428 74.4949 31.129 74.453 31.129C74.4325 31.129 74.4157 31.1446 74.4157 31.1638C74.4157 31.183 74.3843 31.1986 74.346 31.1986C74.3076 31.1986 74.2763 31.2143 74.2763 31.2335C74.2763 31.2526 74.2447 31.2683 74.206 31.2683C74.1675 31.2683 74.1086 31.2827 74.0753 31.3003C74.042 31.3178 73.9207 31.3575 73.8056 31.3885C73.6906 31.4195 73.5483 31.46 73.4894 31.4785C73.4305 31.497 73.3098 31.5122 73.2213 31.5122C73.1327 31.5122 73.0505 31.5279 73.0386 31.547C73.0268 31.5662 72.9004 31.5819 72.7577 31.5819C72.615 31.5819 72.4983 31.5966 72.4983 31.6146C72.4983 31.6326 72.3218 31.6551 72.1061 31.6645C71.6102 31.6863 70.8324 31.7398 70.2584 31.7915C69.9717 31.8173 68.777 31.8331 66.8942 31.8358C64.1347 31.8399 63.9653 31.8367 63.8088 31.776C63.7178 31.7407 63.6432 31.6982 63.6432 31.6817C63.6432 31.6651 63.6113 31.6516 63.5724 31.6516C63.5334 31.6516 63.4471 31.5972 63.3806 31.5308C63.3141 31.4644 63.2598 31.3781 63.2598 31.3391C63.2598 31.3002 63.2441 31.2683 63.2249 31.2683C63.2046 31.2683 63.19 31.1529 63.19 30.9917C63.19 30.8395 63.2057 30.7053 63.2249 30.6935C63.2441 30.6816 63.2598 30.6337 63.2598 30.5869V30.5019H68.9797C73.8904 30.5019 74.7066 30.5089 74.7494 30.5517ZM23.2378 43.5877V45.5947L22.9676 45.5739C22.819 45.5624 22.3876 45.5431 22.0089 45.5308C21.6302 45.5185 21.3203 45.4948 21.3203 45.4781C21.3203 45.4614 20.9752 45.4477 20.5534 45.4477C20.0983 45.4477 19.7864 45.4344 19.7864 45.415C19.7864 45.3964 19.5055 45.3752 19.1327 45.3659C18.2316 45.3434 16.9739 45.2849 16.8057 45.2577C16.6047 45.2253 15.3512 45.1633 14.5483 45.1461C14.142 45.1374 13.8598 45.1177 13.8598 45.098C13.8598 45.0776 13.5658 45.0645 13.1103 45.0645C12.6556 45.0645 12.3607 45.0514 12.3607 45.0311C12.3607 45.0115 12.0907 44.9919 11.7071 44.9835C10.9733 44.9676 9.54262 44.8968 9.47586 44.8731C9.45191 44.8646 9.43228 44.818 9.43228 44.7695C9.43228 44.721 9.41659 44.6813 9.39742 44.6813C9.37727 44.6813 9.36256 44.5709 9.36256 44.42C9.36256 44.269 9.34785 44.1587 9.32769 44.1587C9.30821 44.1587 9.29283 44.0637 9.29283 43.9434C9.29283 43.8251 9.27809 43.68 9.2601 43.6212C9.12494 43.1794 9.00145 41.7355 9.09028 41.635C9.13037 41.5896 9.99771 41.5831 16.1869 41.5819L23.2378 41.5806V43.5877ZM74.3868 41.6383C74.4392 41.6856 74.4506 41.7495 74.4506 41.9954C74.4506 42.1601 74.4273 42.4046 74.3989 42.5387C74.3705 42.6728 74.3469 42.8483 74.3466 42.9286C74.3463 43.0089 74.3303 43.0843 74.3111 43.0961C74.2919 43.108 74.2763 43.2264 74.2763 43.3595C74.2763 43.4975 74.2613 43.6013 74.2414 43.6013C74.2211 43.6013 74.2065 43.7174 74.2065 43.88C74.2065 44.0426 74.192 44.1587 74.1717 44.1587C74.1525 44.1587 74.1368 44.2459 74.1368 44.3525C74.1368 44.459 74.1115 44.6237 74.0805 44.7183L74.0242 44.8903L73.8626 44.8927C73.7738 44.894 73.4265 44.9112 73.0909 44.9307C72.7554 44.9503 72.171 44.9737 71.7923 44.9826C71.3965 44.992 71.1038 45.0128 71.1038 45.0317C71.1038 45.0512 70.8063 45.0645 70.3717 45.0645C69.9273 45.0645 69.6396 45.0776 69.6396 45.098C69.6396 45.1177 69.3574 45.1374 68.951 45.1461C68.1571 45.1631 66.9057 45.2243 66.6763 45.2573C66.4728 45.2866 65.2095 45.3451 64.3318 45.3658C63.9359 45.3752 63.6432 45.3961 63.6432 45.4149C63.6432 45.4344 63.3458 45.4477 62.9111 45.4477C62.5085 45.4477 62.179 45.4614 62.179 45.4781C62.179 45.4948 61.8692 45.5185 61.4905 45.5308C61.1118 45.5431 60.6804 45.5624 60.5318 45.5739L60.2616 45.5947V43.5877V41.5806H67.2923C73.7856 41.5806 74.3279 41.585 74.3868 41.6383ZM10.4782 45.623C10.8629 45.6695 11.9605 45.7292 12.7878 45.7487C13.1498 45.7573 13.4415 45.7785 13.4415 45.7962C13.4415 45.8138 13.7419 45.8362 14.1126 45.8462C15.24 45.8766 17.4397 45.9871 17.6598 46.0244C17.8251 46.0525 19.0627 46.1128 19.8648 46.1319C20.2267 46.1405 20.5185 46.1617 20.5185 46.1794C20.5185 46.197 20.8183 46.219 21.1896 46.2284C21.7329 46.2422 23.0044 46.2969 23.1942 46.3146C23.2271 46.3177 23.2378 46.4591 23.2378 46.8936V47.4684L22.9502 47.4672C22.792 47.4666 22.4194 47.4497 22.1222 47.4297C21.4099 47.3817 20.0055 47.3272 18.9759 47.3076C18.4984 47.2985 18.1479 47.278 18.1479 47.2593C18.1479 47.2405 17.777 47.2199 17.2676 47.2104C16.7834 47.2014 16.0265 47.1792 15.5855 47.1611C15.1445 47.143 14.3522 47.1106 13.8249 47.0892C13.2976 47.0678 12.7027 47.0346 12.5028 47.0155C12.303 46.9963 11.8519 46.9806 11.5005 46.9806C11.0978 46.9806 10.8616 46.9678 10.8616 46.9458C10.8616 46.9266 10.8146 46.911 10.7571 46.911C10.6995 46.911 10.6525 46.8953 10.6525 46.8761C10.6525 46.857 10.6211 46.8413 10.5827 46.8413C10.5444 46.8413 10.513 46.8292 10.513 46.8144C10.513 46.7996 10.4581 46.7579 10.391 46.7218C10.3239 46.6857 10.269 46.6429 10.269 46.6268C10.269 46.6106 10.2437 46.5974 10.2128 46.5974C10.1553 46.5974 9.53687 45.9914 9.53687 45.935C9.53687 45.9179 9.49765 45.8646 9.44971 45.8167C9.40178 45.7688 9.36256 45.6975 9.36256 45.6583C9.36256 45.5906 9.38274 45.5871 9.77219 45.5872C9.99747 45.5872 10.3152 45.6034 10.4782 45.623ZM74.1368 45.6242C74.1368 45.6897 74.0626 45.811 73.9363 45.9516C73.9124 45.9783 73.8928 46.0097 73.8928 46.0213C73.8928 46.0579 73.4088 46.5277 73.371 46.5277C73.3512 46.5277 73.335 46.5434 73.335 46.5626C73.335 46.5817 73.3144 46.5974 73.2893 46.5974C73.2641 46.5974 73.2131 46.625 73.176 46.6587C73.0684 46.7561 72.9237 46.8413 72.8655 46.8413C72.8361 46.8413 72.812 46.857 72.812 46.8761C72.812 46.8953 72.7728 46.911 72.7249 46.911C72.6769 46.911 72.6377 46.9266 72.6377 46.9458C72.6377 46.9678 72.4015 46.9806 71.9988 46.9806C71.6474 46.9806 71.1964 46.9964 70.9966 47.0156C70.7967 47.0348 70.1939 47.0682 69.657 47.0898C69.1201 47.1114 68.3279 47.1436 67.8965 47.1613C67.465 47.1791 66.7159 47.2011 66.2318 47.2102C65.7225 47.2198 65.3515 47.2405 65.3515 47.2593C65.3515 47.278 65.001 47.2985 64.5235 47.3076C63.4939 47.3272 62.0895 47.3817 61.3772 47.4297C61.08 47.4497 60.7074 47.4666 60.5492 47.4672L60.2616 47.4684V46.8936C60.2616 46.5774 60.2655 46.3172 60.2703 46.3155C60.3033 46.3031 61.7638 46.2407 62.3272 46.2275C62.7098 46.2185 63.0157 46.1972 63.0157 46.1795C63.0157 46.1618 63.3007 46.1405 63.652 46.132C64.4315 46.1129 65.627 46.054 65.8396 46.0241C66.0753 45.991 67.3069 45.9277 68.0272 45.9118C68.3993 45.9035 68.6634 45.8838 68.6634 45.8643C68.6634 45.8442 68.9398 45.831 69.3607 45.831C69.782 45.831 70.0579 45.8178 70.0579 45.7976C70.0579 45.778 70.3283 45.7581 70.7116 45.7495C71.4761 45.7323 72.6539 45.6681 72.9829 45.6256C73.3312 45.5806 74.1368 45.5797 74.1368 45.6242ZM58.4062 46.6758L58.3965 47.1374L41.741 47.1462L25.0855 47.1549V46.6846V46.2142H41.7507H58.4159L58.4062 46.6758Z" fill="#C79F6D"/>
</svg>
