<svg width="84" height="76" viewBox="0 0 84 76" fill="none" xmlns="http://www.w3.org/2000/svg">
<rect x="66.8459" y="38.9958" width="16.5793" height="29.923" fill="#C79F6D"/>
<path d="M63.4864 66.8688V41.7003H51.7501C47.7012 41.7003 41.0172 46.0041 38.1812 48.156H28.67C25.0487 48.156 25.0923 50.9476 25.0923 52.0818C25.0923 56.4437 32.0731 57.0689 35.5634 56.8363C39.6123 56.8363 40.3627 56.9671 40.4936 58.2321C40.4936 59.7588 40.0311 60.4131 35.5634 60.4131C24.7433 60.4131 22.0092 54.8589 21.9946 52.0818C20.2785 51.3984 15.7032 49.3948 11.1308 46.8474C5.41533 43.6632 -2.78705 45.9314 1.31414 53.6957C11.9598 64.0771 37.1341 75.3746 41.977 75.3746C45.8513 75.3746 49.2632 74.1241 50.4848 73.4989L63.4864 66.8688Z" fill="#C79F6D"/>
<path d="M17.8725 22.0739C15.1017 17.2759 16.746 11.1407 21.5452 8.37058C26.3443 5.60044 32.4809 7.24436 35.2517 12.0424L41.5905 23.0189C43.2497 25.892 42.265 29.5657 39.3913 31.2245L32.4188 35.2491C29.5451 36.9079 25.8704 35.9235 24.2113 33.0505L17.8725 22.0739Z" fill="#C79F6D"/>
<path fill-rule="evenodd" clip-rule="evenodd" d="M15.4933 18.0211C19.0716 18.0211 21.9723 15.1085 21.9723 11.5156C21.9723 7.92269 19.0716 5.01006 15.4933 5.01006C11.9151 5.01006 9.01433 7.92269 9.01433 11.5156C9.01433 15.1085 11.9151 18.0211 15.4933 18.0211ZM15.4933 21.6353C21.0595 21.6353 25.5718 17.1046 25.5718 11.5156C25.5718 5.92663 21.0595 1.39587 15.4933 1.39587C9.92716 1.39587 5.41488 5.92663 5.41488 11.5156C5.41488 17.1046 9.92716 21.6353 15.4933 21.6353Z" fill="white"/>
<path fill-rule="evenodd" clip-rule="evenodd" d="M14.883 16.5536C18.4612 16.5536 21.362 13.6535 21.362 10.0761C21.362 6.49868 18.4612 3.59861 14.883 3.59861C11.3047 3.59861 8.40397 6.49868 8.40397 10.0761C8.40397 13.6535 11.3047 16.5536 14.883 16.5536ZM14.883 20.1522C20.4492 20.1522 24.9614 15.641 24.9614 10.0761C24.9614 4.51122 20.4492 0 14.883 0C9.3168 0 4.80453 4.51122 4.80453 10.0761C4.80453 15.641 9.3168 20.1522 14.883 20.1522Z" fill="#C79F6D"/>
</svg>
