<?xml version="1.0" standalone="no"?>
<!DOCTYPE svg PUBLIC "-//W3C//DTD SVG 20010904//EN"
 "http://www.w3.org/TR/2001/REC-SVG-20010904/DTD/svg10.dtd">
<svg version="1.0" xmlns="http://www.w3.org/2000/svg"
 width="700.000000pt" height="700.000000pt" viewBox="0 0 700.000000 700.000000"
 preserveAspectRatio="xMidYMid meet">
<metadata>
Created by potrace 1.11, written by Peter Selinger 2001-2013
</metadata>
<g transform="translate(0.000000,700.000000) scale(0.100000,-0.100000)"
fill="#000000" stroke="none">
<path d="M3279 6965 c-3 -2 -38 -7 -79 -10 -41 -3 -86 -8 -100 -10 -14 -2 -48
-7 -76 -10 -51 -6 -61 -7 -149 -25 -27 -5 -62 -12 -77 -14 -122 -20 -399 -105
-581 -177 -874 -348 -1593 -1067 -1935 -1934 -109 -277 -193 -594 -218 -820
-3 -33 -8 -63 -10 -66 -10 -17 -19 -222 -19 -419 0 -222 7 -338 25 -455 5 -33
12 -78 15 -100 22 -147 86 -400 142 -565 154 -455 425 -907 746 -1247 192
-203 360 -348 577 -498 423 -291 907 -486 1418 -570 17 -3 44 -7 60 -10 30 -4
79 -10 192 -22 148 -15 605 -8 720 11 14 3 45 7 70 10 25 3 56 8 70 11 13 2
42 7 64 11 22 3 43 7 46 9 3 2 21 6 41 9 20 3 96 21 170 40 473 122 922 348
1304 655 132 106 377 343 476 461 291 347 509 733 648 1149 42 126 113 404
127 496 5 28 9 52 9 55 1 3 5 32 9 65 5 33 10 69 12 80 26 142 26 613 -1 825
-11 87 -16 127 -21 153 -6 38 -53 258 -59 280 -3 9 -7 25 -9 36 -51 225 -206
604 -349 851 -212 366 -459 659 -806 956 -154 131 -413 300 -646 421 -284 148
-699 282 -1015 328 -19 3 -45 8 -56 10 -12 3 -48 7 -80 10 -33 3 -75 8 -94 11
-43 7 -555 15 -561 9z m442 -169 c64 -3 152 -11 195 -16 44 -6 97 -13 119 -16
22 -3 94 -16 160 -29 480 -97 940 -306 1340 -609 44 -33 85 -65 91 -71 6 -5
38 -32 70 -59 97 -82 309 -302 400 -415 265 -330 470 -715 587 -1102 32 -105
70 -250 81 -316 3 -14 10 -49 16 -77 11 -54 15 -83 26 -181 3 -33 10 -89 14
-125 9 -66 5 -541 -4 -595 -3 -16 -7 -53 -10 -81 -23 -213 -128 -633 -195
-779 -5 -11 -22 -51 -37 -90 -40 -100 -170 -354 -236 -460 -142 -228 -266
-382 -478 -596 -199 -200 -258 -252 -423 -372 -159 -117 -274 -187 -452 -277
-155 -78 -178 -88 -305 -138 -204 -80 -516 -163 -705 -187 -27 -3 -63 -8 -80
-11 -147 -22 -531 -30 -685 -13 -179 19 -165 17 -310 43 -131 24 -139 25 -240
52 -823 218 -1529 741 -1975 1464 -63 102 -163 295 -209 400 -15 36 -34 79
-41 95 -62 141 -170 524 -190 675 -2 14 -6 39 -9 56 -10 57 -25 192 -32 289
-6 89 -6 366 0 425 3 25 8 77 11 115 16 197 88 525 161 735 168 486 425 897
790 1265 155 156 231 223 379 334 233 176 418 285 665 394 131 57 382 145 491
172 35 9 71 17 79 20 29 7 226 44 263 50 131 19 173 23 292 31 55 3 101 7 102
8 3 2 171 -2 284 -8z"/>
<path d="M3279 6666 c-2 -2 -35 -7 -74 -10 -115 -11 -154 -17 -290 -42 -130
-25 -420 -103 -479 -129 -17 -8 -74 -31 -126 -51 -121 -47 -366 -173 -495
-254 -300 -188 -598 -458 -816 -740 -272 -351 -465 -747 -573 -1179 -72 -287
-91 -447 -91 -771 0 -202 8 -368 20 -425 2 -11 7 -36 9 -55 84 -574 343 -1141
730 -1595 137 -161 369 -376 546 -506 63 -47 140 -99 144 -99 3 0 31 -18 64
-39 132 -88 388 -210 602 -288 147 -53 409 -122 525 -138 23 -3 52 -8 65 -10
14 -3 45 -8 70 -10 25 -3 61 -8 80 -11 61 -10 532 -12 601 -3 37 4 89 10 115
13 299 29 750 165 1039 314 323 166 573 348 825 601 140 141 168 172 250 281
36 47 67 87 70 90 14 13 84 117 135 201 124 203 208 379 290 606 45 122 116
382 129 468 4 22 11 65 16 95 17 102 20 125 27 205 10 106 10 488 0 593 -48
526 -225 1026 -523 1477 -45 69 -116 166 -153 211 -14 17 -42 51 -61 75 -61
78 -332 343 -430 421 -314 249 -630 422 -991 542 -116 39 -159 52 -239 72 -31
8 -206 45 -230 48 -14 3 -56 9 -95 15 -38 6 -88 13 -110 17 -45 6 -570 16
-576 10z m521 -90 c331 -38 573 -95 848 -203 63 -24 121 -48 130 -53 9 -5 67
-33 128 -63 364 -179 745 -480 994 -787 25 -30 47 -57 50 -60 10 -10 107 -146
157 -220 221 -331 394 -762 458 -1140 6 -34 23 -147 30 -190 23 -156 25 -545
4 -705 -4 -33 -10 -80 -13 -105 -10 -78 -16 -112 -42 -230 -201 -920 -821
-1708 -1664 -2117 -152 -74 -148 -72 -250 -112 -159 -61 -416 -133 -560 -156
-25 -4 -54 -9 -65 -11 -230 -43 -538 -50 -840 -20 -69 7 -139 18 -275 43 -68
12 -239 59 -355 98 -460 152 -862 401 -1205 745 -184 184 -268 285 -398 481
-226 340 -401 771 -466 1149 -3 19 -8 46 -11 60 -3 14 -8 45 -11 70 -3 25 -7
56 -9 70 -24 179 -25 610 -1 737 2 10 7 41 10 68 4 28 18 106 32 175 207 1029
917 1879 1896 2269 161 64 351 123 468 145 14 2 46 9 73 15 26 6 62 13 80 15
17 3 62 9 98 15 36 6 106 14 155 17 49 4 91 8 93 10 4 4 416 -5 461 -10z"/>
<path d="M2420 3536 l0 -1941 165 -1 c142 0 165 2 166 16 0 8 1 800 0 1760 0
960 2 1754 4 1765 4 20 12 20 537 19 l533 -1 66 -26 c230 -88 408 -249 499
-451 80 -175 87 -381 19 -561 -121 -323 -461 -549 -839 -559 l-45 -1 -2 560
c-1 308 -2 579 -3 603 l0 42 -170 0 -170 0 0 -1583 0 -1583 170 -1 170 0 0 51
c1 28 1 399 1 824 0 424 3 772 7 773 4 0 41 2 82 4 41 2 91 6 110 10 56 9 94
16 112 21 16 5 27 -12 108 -161 18 -33 45 -82 60 -110 15 -27 43 -79 62 -115
20 -36 131 -240 248 -455 117 -214 228 -419 248 -455 19 -36 45 -83 57 -105
12 -22 42 -76 65 -120 24 -44 53 -98 66 -120 l22 -40 159 -1 c180 0 190 1 171
25 -8 9 -23 34 -35 56 -11 22 -103 191 -203 375 -101 184 -239 439 -308 565
-69 127 -156 286 -193 354 -38 68 -69 125 -69 127 0 2 -34 64 -75 139 -41 74
-75 138 -75 143 0 4 25 20 56 36 193 101 371 287 475 497 29 58 73 181 84 234
24 121 33 266 20 350 -3 22 -8 54 -10 71 -3 17 -9 43 -14 58 -6 14 -8 26 -6
26 9 0 -57 167 -92 230 -145 265 -378 455 -693 561 l-95 33 -722 1 -723 2 0
-1941z"/>
</g>
</svg>
